<svg xmlns="http://www.w3.org/2000/svg" width="16" height="15.999" viewBox="0 0 16 15.999">
  <path id="Path_5328" data-name="Path 5328" d="M9.762,8.015l5.982-5.982a.877.877,0,0,0,0-1.237L15.22.271a.877.877,0,0,0-1.238,0L8,6.254,2.018.271A.877.877,0,0,0,.78.271L.256.8a.876.876,0,0,0,0,1.237L6.238,8.015.256,14a.878.878,0,0,0,0,1.238l.524.524a.877.877,0,0,0,1.237,0L8,9.777l5.982,5.982a.868.868,0,0,0,.619.255h0a.868.868,0,0,0,.619-.255l.524-.524a.877.877,0,0,0,0-1.238Z" transform="translate(0 -0.016)" fill="#e54028"/>
</svg>
