<svg xmlns="http://www.w3.org/2000/svg" width="24" height="24" viewBox="0 0 24 24">
  <g id="Group_8598" data-name="Group 8598" transform="translate(-2437.665 3359.807)">
    <path id="Path_16405" data-name="Path 16405" d="M2472.358-3262.841h10.031a1.215,1.215,0,0,1,1.363,1.3q.35,5.158.712,10.316c.006.091,0,.183,0,.3h-20.818c.024-.389.046-.783.074-1.176q.266-3.853.534-7.706c.044-.635.08-1.27.131-1.9a1.148,1.148,0,0,1,1.1-1.106v.364q0,2.586,0,5.172a1.42,1.42,0,0,0,1.606,1.625q1.875,0,3.75,0a1.391,1.391,0,0,0,1.512-1.532q0-2.632,0-5.264Zm6.364,3.682c0-.174-.008-.348,0-.521.013-.24-.1-.332-.325-.327-.344.008-.688,0-1.033,0-.2,0-.3.086-.3.294,0,.184,0,.368,0,.552.007.967-.1.822.828.822C2478.841-3258.336,2478.711-3258.2,2478.722-3259.158Zm2.608.025c0-.195,0-.389,0-.583s-.083-.286-.272-.286c-.365,0-.73,0-1.1,0-.2,0-.3.091-.292.3.006.358.006.717,0,1.075,0,.206.082.3.29.3s.385,0,.578,0C2481.452-3258.341,2481.319-3258.223,2481.33-3259.134Zm0,2.706c0-.195,0-.389,0-.584s-.082-.287-.272-.286c-.365,0-.73,0-1.1,0-.2,0-.293.1-.291.3,0,.358.005.717,0,1.075,0,.207.083.3.29.3s.385,0,.578,0C2481.443-3255.636,2481.32-3255.508,2481.33-3256.427Zm-6.038,3.507c.182,0,.365,0,.547,0a.241.241,0,0,0,.284-.273c0-.379.017-.759-.012-1.135a.371.371,0,0,0-.257-.25c-.373-.03-.749-.013-1.124-.013a.231.231,0,0,0-.262.262c0,.195,0,.389,0,.583C2474.476-3252.775,2474.354-3252.936,2475.292-3252.92Zm2.569,0c.861,0,.865,0,.86-.851,0-.934.113-.818-.8-.818-.969,0-.845-.133-.848.869C2477.067-3252.789,2476.98-3252.933,2477.861-3252.92Zm3.469-.846c0-.143-.011-.288,0-.43.028-.289-.081-.425-.378-.4-.151.013-.3,0-.456,0-.942.007-.822-.11-.822.836s-.122.835.818.833C2481.464-3252.925,2481.317-3252.783,2481.33-3253.766Zm-6.049-4.569c.172,0,.345-.009.517,0,.236.016.334-.088.329-.323-.007-.3,0-.593,0-.89,0-.44-.021-.459-.471-.459h-.365c-.948.009-.82-.11-.82.834C2474.469-3258.2,2474.342-3258.346,2475.28-3258.335Zm0,2.707c.172,0,.345-.009.517,0,.237.015.332-.091.327-.325-.007-.327-.012-.655,0-.982.012-.285-.114-.389-.384-.368-.151.012-.3,0-.456,0-.937.008-.821-.113-.819.836S2474.336-3255.638,2475.282-3255.628Zm2.6,0c.957-.014.833.144.834-.846,0-.939.119-.823-.829-.825s-.822-.108-.822.835C2477.069-3255.491,2476.96-3255.639,2477.886-3255.626Z" transform="translate(-24.396 -91.047)" fill="#fff"/>
    <path id="Path_16406" data-name="Path 16406" d="M2449.667-3050.111h-11.188c-.628,0-.81-.185-.811-.821,0-1.057-.007-2.114,0-3.17a5.491,5.491,0,0,1,.069-.847.487.487,0,0,1,.514-.429c1.39-.009,2.781,0,4.171-.01,1.095,0,2.19-.022,3.285-.025,1.411,0,2.822,0,4.232,0,2.153,0,4.305,0,6.458,0,1.085,0,2.17.022,3.255.026.456,0,.913-.025,1.369-.025.394,0,.573.14.591.529.036.79.037,1.581.046,2.372.007.526.005,1.052.005,1.578,0,.638-.181.822-.81.822Zm-.026-1.626a.99.99,0,0,0,1.03-.993c-.028-.7-.324-.957-1.05-1.046-.445-.054-.944.487-.964.994A1.014,1.014,0,0,0,2449.641-3051.737Z" transform="translate(0 -285.696)" fill="#fff"/>
    <path id="Path_16407" data-name="Path 16407" d="M2507.531-3295.739q0-1.782,0-3.564c0-.5.176-.672.681-.673q1.919,0,3.838,0c.506,0,.671.166.671.677q0,3.594,0,7.188c0,.51-.163.671-.675.671h-3.838c-.506,0-.676-.169-.677-.675Q2507.53-3293.927,2507.531-3295.739Z" transform="translate(-65.601 -56.15)" fill="#fff"/>
    <path id="Path_16408" data-name="Path 16408" d="M2630.354-3356.469v1.724h-1.365v-1.723h-.364c-.9,0-1.809,0-2.714,0-.422,0-.6-.177-.6-.588q-.005-1.083,0-2.165c0-.4.18-.58.578-.581q3.8,0,7.592,0c.413,0,.594.184.6.6q.007,1.067,0,2.134c0,.422-.189.6-.625.6C2632.437-3356.467,2631.422-3356.469,2630.354-3356.469Z" transform="translate(-176.189 0)" fill="#fff"/>
  </g>
</svg>
