<svg xmlns="http://www.w3.org/2000/svg" width="24" height="16" viewBox="0 0 24 16">
  <g id="coin" transform="translate(-19.125 -30.848)">
    <g id="Group_9105" data-name="Group 9105" transform="translate(19.593 31.316)">
      <path id="Path_16780" data-name="Path 16780" d="M20.875,57.235v3.423c0,.945,3.517,1.711,7.855,1.711s7.855-.767,7.855-1.711V57.235Z" transform="translate(-20.875 -51.625)" fill="#fda400"/>
      <ellipse id="Ellipse_1823" data-name="Ellipse 1823" cx="7.855" cy="1.712" rx="7.855" ry="1.712" transform="translate(0 4.245)" fill="#fccf00"/>
      <path id="Path_16781" data-name="Path 16781" d="M48.375,76.2v3.423c0,.946,3.517,1.711,7.855,1.711s7.855-.766,7.855-1.711V76.2Z" transform="translate(-41.021 -66.271)" fill="#fda400"/>
      <ellipse id="Ellipse_1824" data-name="Ellipse 1824" cx="7.855" cy="1.712" rx="7.855" ry="1.712" transform="translate(7.354 8.66)" fill="#fccf00"/>
      <path id="Path_16782" data-name="Path 16782" d="M34.625,39v3.423c0,.945,3.517,1.711,7.855,1.711s7.855-.766,7.855-1.711V39Z" transform="translate(-30.948 -37.288)" fill="#fda400"/>
      <ellipse id="Ellipse_1825" data-name="Ellipse 1825" cx="7.855" cy="1.712" rx="7.855" ry="1.712" transform="translate(3.677 0)" fill="#fccf00"/>
    </g>
    <g id="Group_9106" data-name="Group 9106" transform="translate(19.125 30.848)">
      <path id="Path_16783" data-name="Path 16783" d="M43.113,41.7c-.2-1.482-5.185-1.793-7.342-1.858v-2.27c1.908-.262,3.677-.751,3.677-1.666V34.786a.47.47,0,0,0-.936,0l0,1.1c-.076.169-1.014.619-3.176.9-.012,0-.023,0-.035,0a.527.527,0,0,0-.179.031,33.575,33.575,0,0,1-4,.214c-5.225,0-7.276-.891-7.387-1.123V33.813c2.118.955,7.12.969,7.387.969.34,0,8.323-.022,8.323-1.967s-7.983-1.967-8.323-1.967q-.533,0-1.049.014a.444.444,0,0,0-.455.434.45.45,0,0,0,.481.41q.5-.014,1.022-.013c5.09,0,7.167.845,7.378,1.123-.211.277-2.288,1.122-7.378,1.122s-7.167-.845-7.378-1.122a5.029,5.029,0,0,1,2.471-.778.428.428,0,0,0,.378-.49.466.466,0,0,0-.543-.341c-2.188.354-3.251.881-3.251,1.609v2.727c-2.439.342-3.677.9-3.677,1.673V40.3c0,1.413,4.3,1.805,6.152,1.908h.029a.45.45,0,0,0,.482-.41.444.444,0,0,0-.454-.435c-3.672-.2-5.161-.831-5.274-1.065V38.213c2.118.955,7.12.969,7.387.969s5.27-.014,7.387-.969v1.611H34.8c-.334,0-8.059.024-8.311,1.875a.378.378,0,0,0-.012.092v3.089c0,1.945,7.983,1.967,8.323,1.967s8.323-.022,8.323-1.967V41.792A.378.378,0,0,0,43.113,41.7ZM20.07,37.216c.115-.152.823-.552,2.908-.843,1.168,1.48,7.836,1.5,8.146,1.5.11,0,1.021,0,2.2-.072a26.072,26.072,0,0,1-5.878.538C22.359,38.338,20.281,37.493,20.07,37.216ZM34.8,46c-5.225,0-7.276-.891-7.387-1.123V42.789c2.118.955,7.12.969,7.387.969.4,0,.791-.006,1.177-.017a.444.444,0,0,0,.453-.436.451.451,0,0,0-.483-.409c-.374.011-.76.017-1.145.017-5.09,0-7.167-.845-7.378-1.123.21-.277,2.288-1.123,7.378-1.123s7.158.842,7.376,1.121c-.074.085-.479.436-2.28.748a.427.427,0,0,0-.372.494.468.468,0,0,0,.548.335,9.236,9.236,0,0,0,2.116-.571l0,2.065C42.006,45.27,39.377,46,34.8,46Z" transform="translate(-19.125 -30.848)" fill="#5b2300"/>
      <path id="Path_16784" data-name="Path 16784" d="M87.678,80.269l-.355.033a.468.468,0,0,0,.04.934.3.3,0,0,0,.041,0q.187-.016.368-.034a.468.468,0,1,0-.093-.931Z" transform="translate(-68.772 -68.416)" fill="#5b2300"/>
      <path id="Path_16785" data-name="Path 16785" d="M51.841,32.186a.3.3,0,0,0,.041,0l.214-.018a.468.468,0,1,0-.073-.933l-.222.018a.468.468,0,0,0,.04.934Z" transform="translate(-42.749 -31.129)" fill="#5b2300"/>
    </g>
  </g>
</svg>
