<svg xmlns="http://www.w3.org/2000/svg" xmlns:xlink="http://www.w3.org/1999/xlink" width="92" height="48" viewBox="0 0 92 48">
  <defs>
    <clipPath id="clip-path">
      <rect id="Rectangle_6251" data-name="Rectangle 6251" width="92" height="47.869" transform="translate(0 0)"/>
    </clipPath>
  </defs>
  <g id="Group_8567" data-name="Group 8567" transform="translate(49 -238.024)">
    <path id="Path_16203" data-name="Path 16203" d="M-46.3,519.537l-.551-1.238c-.042-.1-.076-.18-.1-.254s-.051-.148-.073-.221c-.036.11-.07.2-.1.28s-.051.136-.068.175l-.566,1.258L-49,517.013h.582l.536,1.148a1.15,1.15,0,0,1,.064.2c.02.084.039.178.054.28a.746.746,0,0,1,.03-.188,1.688,1.688,0,0,1,.094-.241l.583-1.286h.045l.594,1.286a1.372,1.372,0,0,1,.082.224,1.034,1.034,0,0,1,.031.205,2.447,2.447,0,0,1,.058-.256,1.578,1.578,0,0,1,.081-.218l.526-1.153h.577Zm0,0" transform="translate(0 -242.524)"/>
    <path id="Path_16204" data-name="Path 16204" d="M-13.427,519.537l-.552-1.238c-.041-.1-.076-.18-.1-.254s-.051-.148-.072-.221c-.037.11-.071.2-.1.28s-.051.136-.068.175l-.566,1.258-1.237-2.524h.582l.537,1.148a1.2,1.2,0,0,1,.063.2c.021.084.039.178.054.28a.748.748,0,0,1,.031-.188,1.615,1.615,0,0,1,.093-.241l.583-1.286h.045l.594,1.286a1.28,1.28,0,0,1,.082.224,1.076,1.076,0,0,1,.032.205,2.447,2.447,0,0,1,.057-.256,1.728,1.728,0,0,1,.081-.218l.526-1.153h.576Zm0,0" transform="translate(-28.492 -242.524)"/>
    <path id="Path_16205" data-name="Path 16205" d="M19.443,519.537l-.552-1.238c-.041-.1-.075-.18-.1-.254s-.05-.148-.072-.221c-.037.11-.07.2-.1.28s-.051.136-.068.175l-.566,1.258-1.237-2.524h.582l.537,1.148a1.25,1.25,0,0,1,.064.2c.02.084.039.178.054.28a.747.747,0,0,1,.03-.188,1.742,1.742,0,0,1,.093-.241l.583-1.286h.045l.594,1.286a1.279,1.279,0,0,1,.082.224,1.007,1.007,0,0,1,.032.205,2.412,2.412,0,0,1,.057-.256,1.708,1.708,0,0,1,.081-.218l.526-1.153h.576Zm0,0" transform="translate(-56.981 -242.524)"/>
    <path id="Path_16206" data-name="Path 16206" d="M50.434,531.178a.328.328,0,0,1,.1-.236.328.328,0,0,1,.468,0,.33.33,0,0,1,.1.236.313.313,0,0,1-.1.23.338.338,0,0,1-.468,0,.312.312,0,0,1-.1-.23" transform="translate(-86.178 -254.592)"/>
    <path id="Path_16207" data-name="Path 16207" d="M66.019,508.94a.87.87,0,0,0-.172-.575.667.667,0,0,0-.969.006,1.076,1.076,0,0,0-.006,1.174.651.651,0,0,0,.963-.016.9.9,0,0,0,.184-.589M66,506.245h.546v3.892H66v-.309a.907.907,0,0,1-.788.408.987.987,0,0,1-.8-.346,1.419,1.419,0,0,1-.291-.945,1.37,1.37,0,0,1,.3-.92,1.054,1.054,0,0,1,1.275-.23.715.715,0,0,1,.3.35Zm0,0" transform="translate(-98.047 -233.263)"/>
    <path id="Path_16208" data-name="Path 16208" d="M91.531,508.685h.546v2.381h-.546Zm-.074-1.029a.328.328,0,0,1,.1-.239.349.349,0,0,1,.487,0,.352.352,0,0,1,0,.487.32.32,0,0,1-.242.1.348.348,0,0,1-.345-.344" transform="translate(-121.811 -234.19)"/>
    <path id="Path_16209" data-name="Path 16209" d="M105.828,519.431V517.05h.514v.389a1.024,1.024,0,0,1,.386-.359,1.165,1.165,0,0,1,.538-.113,1.122,1.122,0,0,1,.454.083.656.656,0,0,1,.384.479,2.5,2.5,0,0,1,.028.458v1.443h-.551v-1.223a1.14,1.14,0,0,0-.115-.624.475.475,0,0,0-.407-.155.8.8,0,0,0-.341.071.543.543,0,0,0-.32.418,2.9,2.9,0,0,0-.023.428v1.084Zm0,0" transform="translate(-134.276 -242.56)"/>
    <path id="Path_16210" data-name="Path 16210" d="M133.007,518.233a.87.87,0,0,0-.172-.575.593.593,0,0,0-.482-.206.6.6,0,0,0-.487.212,1.075,1.075,0,0,0-.006,1.174.648.648,0,0,0,.962-.017.889.889,0,0,0,.185-.588m.531,1.05a1.383,1.383,0,0,1-.28.983,1.28,1.28,0,0,1-.941.286,1.34,1.34,0,0,1-.788-.208.654.654,0,0,1-.3-.551l.586,0a.288.288,0,0,0,.144.234.7.7,0,0,0,.368.08.7.7,0,0,0,.5-.153.712.712,0,0,0,.156-.513l.005-.317a.907.907,0,0,1-.788.408.987.987,0,0,1-.8-.346,1.419,1.419,0,0,1-.291-.945,1.369,1.369,0,0,1,.3-.919,1.053,1.053,0,0,1,1.275-.23.713.713,0,0,1,.3.351v-.389h.546Zm0,0" transform="translate(-156.208 -242.575)"/>
    <path id="Path_16211" data-name="Path 16211" d="M157.052,514.1v-1.9h-.419v-.478h.419v-.9h.546v.9h.417v.478H157.6v1.9Zm0,0" transform="translate(-178.336 -237.229)"/>
    <path id="Path_16212" data-name="Path 16212" d="M174.99,517.954a.574.574,0,0,0-.2-.39.681.681,0,0,0-.447-.134.674.674,0,0,0-.434.131.7.7,0,0,0-.228.393Zm.567.367h-1.909a.8.8,0,0,0,.2.521.625.625,0,0,0,.476.187.811.811,0,0,0,.44-.11.9.9,0,0,0,.308-.357l.461.256a1.39,1.39,0,0,1-.5.535,1.351,1.351,0,0,1-.7.176,1.218,1.218,0,0,1-.914-.349,1.28,1.28,0,0,1-.34-.932,1.264,1.264,0,0,1,.352-.92,1.351,1.351,0,0,1,1.8-.031,1.262,1.262,0,0,1,.322.921Zm0,0" transform="translate(-192.603 -242.561)"/>
    <path id="Path_16213" data-name="Path 16213" d="M200.352,518.233a.87.87,0,0,0-.172-.575.667.667,0,0,0-.969.006,1.075,1.075,0,0,0-.006,1.174.648.648,0,0,0,.962-.017.892.892,0,0,0,.185-.588m.531,1.2h-.546v-.309a.906.906,0,0,1-.788.408.988.988,0,0,1-.8-.346,1.421,1.421,0,0,1-.291-.945,1.37,1.37,0,0,1,.3-.919.968.968,0,0,1,.775-.351.978.978,0,0,1,.5.121.715.715,0,0,1,.3.351v-.389h.546Zm0,0" transform="translate(-214.613 -242.561)"/>
    <path id="Path_16214" data-name="Path 16214" d="M226.68,531.178a.326.326,0,0,1,.1-.236.329.329,0,0,1,.469,0,.331.331,0,0,1,.1.236.315.315,0,0,1-.1.23.338.338,0,0,1-.469,0,.31.31,0,0,1-.1-.23" transform="translate(-239.083 -254.592)"/>
    <path id="Path_16215" data-name="Path 16215" d="M239.846,520.109l-1.252-2.524h.6l.521,1.2a1.551,1.551,0,0,1,.059.166c.024.074.049.162.074.263.016-.071.036-.144.058-.214a2.015,2.015,0,0,1,.083-.215l.518-1.2h.594Zm0,0" transform="translate(-249.419 -243.097)"/>
    <path id="Path_16216" data-name="Path 16216" d="M263.824,519.431V517.05h.514v.389a1.022,1.022,0,0,1,.386-.359,1.169,1.169,0,0,1,.539-.113,1.126,1.126,0,0,1,.454.083.665.665,0,0,1,.293.25.687.687,0,0,1,.091.229,2.554,2.554,0,0,1,.028.458v1.443h-.552v-1.223a1.144,1.144,0,0,0-.115-.624.475.475,0,0,0-.407-.155.8.8,0,0,0-.342.071.562.562,0,0,0-.235.2.553.553,0,0,0-.085.221,2.827,2.827,0,0,0-.023.428v1.084Zm0,0" transform="translate(-271.299 -242.56)"/>
    <path id="Path_16217" data-name="Path 16217" d="M252.295,563.991h-.071a3.377,3.377,0,0,0-.291-.436l-.464.07c.066.082.154.2.265.366h-1.642v.929a6.8,6.8,0,0,1-.117,1.554,2.259,2.259,0,0,1-.335.7l.388.307a4.334,4.334,0,0,0,.388-.888,5.9,5.9,0,0,0,.129-1.434v-.767h3.4v-.4Zm0,0" transform="translate(-259.003 -283.087)"/>
    <path id="Path_16218" data-name="Path 16218" d="M260.882,572.612v.706h-2.049v-.706Zm-1-1.738h-.445v1.349H258.4v1.737h.438v-.251h2.049v.251h.447v-1.737h-1.448v-.563h1.482v-.392h-1.482Zm0,0" transform="translate(-266.592 -289.432)"/>
    <path id="Path_16219" data-name="Path 16219" d="M205.317,579.951H204.1v-.206h2.479v.206Zm-1.221-.6h2.479v.187H204.1Zm0-.376h2.479v.17H204.1Zm2.9,1.231V578.73h-3.312v1.476Zm0,0" transform="translate(-219.144 -296.24)"/>
    <path id="Path_16220" data-name="Path 16220" d="M204.782,572.033v.239h-.8v-.239Zm-1.186.245H202.8v-.242h.794Zm-1.183,0h-.757v-.242h.757Zm.787-.5h-1.959v.75h3.947v-.75Zm0,0" transform="translate(-217.027 -290.214)"/>
    <path id="Path_16221" data-name="Path 16221" d="M218.925,589.878l-.21.272c.29.047.543.088.763.121l.049.01c.209.031.455.083.747.149l.2-.318c-.217-.04-.535-.087-.949-.146-.183-.026-.385-.052-.6-.088" transform="translate(-232.177 -305.902)"/>
    <path id="Path_16222" data-name="Path 16222" d="M202.5,564.037v.191h-1.714v.264h3.841v-.264h-1.7v-.191h1.849v-.287h-1.849v-.188H202.5v.188h-1.832v.287Zm0,0" transform="translate(-216.526 -283.094)"/>
    <path id="Path_16223" data-name="Path 16223" d="M201.1,589.992c-.264.042-.578.086-.936.114l.2.318c.251-.024.494-.054.737-.1a7.028,7.028,0,0,0,.8-.181l-.235-.273a4.762,4.762,0,0,1-.562.121" transform="translate(-216.085 -305.895)"/>
    <path id="Path_16224" data-name="Path 16224" d="M153,565.909c-.184,0-.371,0-.571,0v-.232h1.218l-.218.114.106.1-.534.014m-.571-.788h1.138v.262h-1.138Zm0-.508h1.138v.234h-1.138Zm-.412.234h-1.136v-.234h1.136Zm0,.536h-1.136v-.262h1.136Zm1.39.834c.054,0,.125,0,.216,0h.208l.153.165.292-.236a6.2,6.2,0,0,0-.482-.462h.186v-1.365h-1.55v-.2h1.9v-.333h-1.9v-.222h-.412v.222h-1.874v.333h1.874v.2h-1.55v1.365h1.55v.237c-.141,0-.328,0-.54,0h-.016c-.4,0-.806,0-1.216-.015l.1.368c.367-.009.742-.011,1.134-.014l.3,0c.425,0,.827-.01,1.2-.018v.246H150.1v.337h2.876v.278c0,.087-.046.127-.138.127l-.459-.022.1.384H153a.4.4,0,0,0,.406-.455v-.312h.987v-.337h-.987Zm0,0" transform="translate(-172.672 -283.087)"/>
    <path id="Path_16225" data-name="Path 16225" d="M156.68,588.078l-.305.24c.185.1.366.195.544.307.077.046.15.1.223.147l.317-.315a5.674,5.674,0,0,0-.54-.288c-.087-.038-.167-.068-.239-.092" transform="translate(-178.112 -304.342)"/>
    <path id="Path_16226" data-name="Path 16226" d="M100.88,570.335h.751v.36h-.751Zm0-.619h.751v.328h-.751Zm2.788,1.243a2.368,2.368,0,0,1-.285-1.084v-.421H102.9v.421a2.756,2.756,0,0,1-.2.946,3.1,3.1,0,0,1-.554.968l-.014.01a3.959,3.959,0,0,0-.414-.731l-.339.115c.034.061.068.125.111.2s.058.131.081.181c-.08.024-.178.051-.311.078-.11.028-.236.052-.379.081v-.71h1.153v-1.6h-.447a1.267,1.267,0,0,0-.187-.449l-.139.019-.221.027a2.261,2.261,0,0,1,.151.4h-.723v2.376a1.4,1.4,0,0,1-.283.043l.089.365a9.749,9.749,0,0,0,.986-.2,3.454,3.454,0,0,0,.428-.139c.024.049.062.147.115.285l.27-.1.073.079.158.167a2.9,2.9,0,0,0,.6-.889,2.366,2.366,0,0,0,.248-.723,2.881,2.881,0,0,0,1.06,1.612l.268-.357a2.671,2.671,0,0,1-.812-.966" transform="translate(-129.383 -287.769)"/>
    <path id="Path_16227" data-name="Path 16227" d="M114.406,565.433a3.473,3.473,0,0,0,.547-.867h1a2,2,0,0,1-.417.975l.4.223a3.451,3.451,0,0,0,.5-1.569h-1.344a2.836,2.836,0,0,0,.141-.536l-.416-.043a3.228,3.228,0,0,1-.65,1.4,1.521,1.521,0,0,1-.112.123l.112.092Zm0,0" transform="translate(-141.411 -283.142)"/>
    <path id="Path_16228" data-name="Path 16228" d="M100.47,564.889a3.814,3.814,0,0,0,.79-.7c.035-.04.063-.082.095-.121a8.728,8.728,0,0,1,.636.677l.156-.186.109-.137c-.037-.035-.071-.073-.109-.107a7.031,7.031,0,0,0-.64-.568h-.342a4.049,4.049,0,0,1-.979.9l.153.335c.047-.03.087-.063.13-.092Zm0,0" transform="translate(-129.381 -283.253)"/>
    <path id="Path_16229" data-name="Path 16229" d="M67.993,564.725h.438V564.3h.963v-.37h-.963v-.369h-.438v.369h-.61v.37h.61Zm0,0" transform="translate(-100.867 -283.094)"/>
    <path id="Path_16230" data-name="Path 16230" d="M53.292,577.56h.985V577.2H52.862v-.53h-.436v.53H50.96v.362h1.029a2.092,2.092,0,0,1-.476.428,3.262,3.262,0,0,1-1.024.453l.253.367a3.8,3.8,0,0,0,.772-.35,2.614,2.614,0,0,0,.914-.893v1.417h.436V577.56a2.423,2.423,0,0,0,.888.881,4.574,4.574,0,0,0,.814.38l.218-.41a3.145,3.145,0,0,1-1.032-.433,2.232,2.232,0,0,1-.459-.418" transform="translate(-86.225 -294.453)"/>
    <path id="Path_16231" data-name="Path 16231" d="M51.61,564.725h.443V564.3h.622v-.37h-.622v-.369H51.61v.369h-.95v.37h.95Zm0,0" transform="translate(-86.374 -283.094)"/>
    <path id="Path_16232" data-name="Path 16232" d="M51.54,572.054c.077-.036.154-.076.23-.119a4.156,4.156,0,0,0,.891-.585v-.006a5.2,5.2,0,0,0,1.117.711,8.432,8.432,0,0,0,.825.329l.2-.415a5.537,5.537,0,0,1-1.027-.371,4.3,4.3,0,0,1-.874-.539h-.493a4.063,4.063,0,0,1-.872.559,5.275,5.275,0,0,1-1.02.36l.212.384a4.573,4.573,0,0,0,.808-.306" transform="translate(-86.252 -289.591)"/>
    <path id="Path_16233" data-name="Path 16233" d="M13.226,564.736a6.724,6.724,0,0,1-.233,1.446l-.01-.018a4.189,4.189,0,0,1-.237-1.1,2.754,2.754,0,0,0,.108-.327Zm-.276-.342c.013-.039.02-.074.032-.121.037-.14.078-.349.142-.619l-.142-.015-.243-.022a5.946,5.946,0,0,1-.343,1.27c-.035-.056-.081-.127-.134-.22s-.108-.179-.151-.25l-.338.109c.094.151.18.3.256.441-.2.022-.386.03-.556.042a5.29,5.29,0,0,0,.276-.825h.717v-.331h-1.59v.331h.5a5.716,5.716,0,0,1-.295.828l-.178.007-.1,0,.093.35h0c.114-.011.217-.017.3-.024l.266-.021v.512h-.445v.336h.445v.781a2.96,2.96,0,0,1-.309.078c-.095.018-.173.029-.259.049l-.068.009.068.381v0a12.26,12.26,0,0,0,1.5-.443v-.338c-.1.029-.2.057-.285.085s-.178.056-.266.081v-.686h.449v-.336h-.449V565.3l.374-.039-.2.288.3.206a.652.652,0,0,0,.148-.248,4.526,4.526,0,0,0,.324,1.092,2.5,2.5,0,0,1-.693.758l.264.29a2.838,2.838,0,0,0,.6-.691l.019-.029a4.616,4.616,0,0,0,.531.706l.223-.332a2.63,2.63,0,0,1-.561-.72,5.126,5.126,0,0,0,.373-1.841h.188v-.342Zm0,0" transform="translate(-51.836 -283.142)"/>
    <path id="Path_16234" data-name="Path 16234" d="M9.927,584.673a3.474,3.474,0,0,0-.207-.585l0-.01-.275.07c.042.141.1.344.157.624l.122-.037Zm0,0" transform="translate(-50.65 -300.875)"/>
    <path id="Path_16235" data-name="Path 16235" d="M1.242,566.112H1.137l.092.327c.48-.037.822-.078,1.039-.11a.943.943,0,0,1,.031.166l.225-.057.1-.019c-.037-.134-.069-.248-.1-.354a2.1,2.1,0,0,0-.134-.345l-.289.056a2.145,2.145,0,0,1,.106.264c-.062.009-.143.016-.251.03-.077.009-.14.011-.189.016a4.714,4.714,0,0,0,.756-1.168c.033-.076.071-.154.1-.233l-.1-.036-.248-.082a2.282,2.282,0,0,1-.2.415c-.056,0-.114.009-.187.015s-.132.017-.187.026a5.308,5.308,0,0,0,.476-1.125l-.361-.059a4.306,4.306,0,0,1-.5,1.2H1.229a.079.079,0,0,1-.045.008c-.023,0-.04,0-.047-.008l.069.314a6.118,6.118,0,0,0,.728-.071,5.037,5.037,0,0,1-.586.827c-.045,0-.079.008-.106.008" transform="translate(-43.453 -283.334)"/>
    <path id="Path_16236" data-name="Path 16236" d="M-34.557,564.712h.933V564.4h-.933v-.2h1.011v-.339h-1.011v-.307h-.422v.307h-.972v.339h.972v.2h-.885v.308h.885v.249H-36v.333h2.514v-.333h-1.075Zm0,0" transform="translate(-11.27 -283.094)"/>
    <path id="Path_16237" data-name="Path 16237" d="M.746,585.873l.352.1a3.669,3.669,0,0,0,.2-1.065l-.325-.026a3.785,3.785,0,0,1-.222.991" transform="translate(-43.114 -301.572)"/>
    <path id="Path_16238" data-name="Path 16238" d="M5.863,584.786c.025.242.037.454.037.626,0,.1,0,.2-.006.282l.37-.02a4.314,4.314,0,0,0-.1-.909Zm0,0" transform="translate(-47.549 -301.471)"/>
    <path id="Path_16239" data-name="Path 16239" d="M-33.472,578.318v.236h-1.466v-.236Zm0,.791h-1.466v-.247h1.466Zm-1.883-1.129v2.133h.417v-.7h1.466v.182c0,.095-.052.142-.156.142l-.449-.019.1.334h.475a.439.439,0,0,0,.35-.106.624.624,0,0,0,.085-.4V577.98Zm0,0" transform="translate(-11.826 -295.59)"/>
    <path id="Path_16240" data-name="Path 16240" d="M-39.984,567.049a6.479,6.479,0,0,0,.179-.943l-.245-.034-.043-.006a5.355,5.355,0,0,1-.195.909l.238.057Zm0,0" transform="translate(-7.55 -285.264)"/>
    <path id="Path_16241" data-name="Path 16241" d="M-47.924,565.466v-.058h.536v-.349h-.536v-1.5h-.417v1.5h-.615v.349h.567a5.5,5.5,0,0,1-.295.674,2.248,2.248,0,0,1-.316.438l.2.443c.042-.056.076-.115.118-.171a3.39,3.39,0,0,0,.343-.779v1.611h.417V565.9a3.853,3.853,0,0,1,.323.558c.027.053.057.105.079.158l.224-.358a3.428,3.428,0,0,0-.3-.431,2.173,2.173,0,0,0-.323-.358" transform="translate(0 -283.094)"/>
    <path id="Path_16242" data-name="Path 16242" d="M-48.186,567.119l.233-.037a5.936,5.936,0,0,0-.165-.9l-.068,0-.24.031a6.962,6.962,0,0,1,.13.919Zm0,0" transform="translate(-0.497 -285.366)"/>
    <rect id="Rectangle_6250" data-name="Rectangle 6250" width="43.918" height="0.422" transform="translate(-48.756 285.602)"/>
    <path id="Path_16243" data-name="Path 16243" d="M-10.344,379.639a4.883,4.883,0,0,1-4,1.779,7.4,7.4,0,0,1-2.428-.365,21.273,21.273,0,0,1-.4-4.86v-3.706a26.332,26.332,0,0,1,.22-4.779,4.51,4.51,0,0,1,2.324-.5,5.112,5.112,0,0,1,4.3,1.882A7.723,7.723,0,0,1-8.9,373.354c.027.328.04.667.04,1.019s-.013.7-.04,1.033a7.332,7.332,0,0,1-1.442,4.234m2.682-5.421a11.063,11.063,0,0,0-.718-4.283,7.413,7.413,0,0,0-.522-.993,6.46,6.46,0,0,0-1.656-1.782,5.884,5.884,0,0,0-3.529-1.051c-.288,0-.808.028-1.569.081-.506.039-1.39.07-2.655.1V382.3h.837a1.481,1.481,0,0,1,.275.016c1.157.107,2.194.165,3.112.165a5.746,5.746,0,0,0,4.7-2.156,6.3,6.3,0,0,0,.484-.7,10.389,10.389,0,0,0,1.24-5.4" transform="translate(-26.597 -111.603)"/>
    <path id="Path_16244" data-name="Path 16244" d="M52.455,379.355q1.873,1.908,1.877,6.555,0,4.72-2.255,6.651c-.01.013-.022.022-.03.031l.03-.025a7.553,7.553,0,0,0,3.547-6.7,8.5,8.5,0,0,0-.8-3.741,7.408,7.408,0,0,0-2.373-2.775" transform="translate(-87.576 -123.086)"/>
    <path id="Path_16245" data-name="Path 16245" d="M-48.7,366.386a2.394,2.394,0,0,1,1.506,1.213,6.883,6.883,0,0,1,.423,2.809v6.275a12.883,12.883,0,0,1-.423,4.159A2.284,2.284,0,0,1-48.7,382.2v.277c1.4-.12,2.42-.18,3.07-.18V366.294c-.855-.022-1.875-.082-3.07-.184Zm0,0" transform="translate(-0.264 -111.603)"/>
    <path id="Path_16246" data-name="Path 16246" d="M103.094,396.124a1.843,1.843,0,0,1,1.294.893,4.889,4.889,0,0,1,.375,2.2v5.142a6.974,6.974,0,0,1-.365,2.747,1.825,1.825,0,0,1-1.3,1v.206c1.193-.088,2.086-.138,2.667-.138v-12.12c-.781-.019-1.675-.064-2.667-.14Zm0,0" transform="translate(-131.905 -137.473)"/>
    <path id="Path_16247" data-name="Path 16247" d="M129.988,408.177a23.4,23.4,0,0,1,2.672.138v-.206a2.2,2.2,0,0,1-1.162-.77,3.882,3.882,0,0,1-.521-2.382v-5.483a4.645,4.645,0,0,1,.5-2.609,1.832,1.832,0,0,1,1.186-.737v-.21a22.855,22.855,0,0,1-2.672.14Zm0,0" transform="translate(-155.229 -137.476)"/>
    <path id="Path_16248" data-name="Path 16248" d="M208.531,395.954l-.422-.037v.21a2.753,2.753,0,0,1,1.334.53,1.9,1.9,0,0,1,.7,1.019,7.585,7.585,0,0,1,.175,1.844v4.771l-5.359-4.3-4.887-3.932h-1.439l6.326,5.095,6.329,5.092v-7.015a6.164,6.164,0,0,1,.17-1.641,1.906,1.906,0,0,1,.636-.964,2.03,2.03,0,0,1,1.108-.5v-.21c-1.312.092-2.139.14-2.492.14-.385,0-1.106-.037-2.174-.1" transform="translate(-214.781 -137.453)"/>
    <path id="Path_16249" data-name="Path 16249" d="M174.132,396.057l-2.179-.14v.21a10.207,10.207,0,0,1,3.077,1.857l.883.706.012,6a5.666,5.666,0,0,1-.38,2.48,1.978,1.978,0,0,1-1.426.934v.207c1-.089,1.748-.138,2.239-.138.444,0,1.276.049,2.509.138v-.207a2.284,2.284,0,0,1-1.509-.89,4.467,4.467,0,0,1-.471-2.423v-5.35l4.949,3.98,6.087,4.889h.242v-.94l-6.329-5.105Zm0,0" transform="translate(-191.646 -137.476)"/>
    <path id="Path_16250" data-name="Path 16250" d="M414.332,438.713c-.242.019-.509.036-.785.052-.1.007-.192.007-.284.013v5.542c.05-.017.12-.039.2-.072.023-.007.051-.017.08-.024.064-.022.147-.043.231-.064a3.569,3.569,0,0,1,.476-.137V441.1q0-1.831,1.11-2.253v-.208c-.16,0-.505.023-1.032.073" transform="translate(-400.9 -174.536)"/>
    <path id="Path_16251" data-name="Path 16251" d="M328.219,411.218a18.74,18.74,0,0,1-.169-2.039,8.453,8.453,0,0,1,1.181-4.59c.1-.152.2-.305.307-.444-.106.064-.2.129-.307.2a5.953,5.953,0,0,0-1.534,1.693,5.77,5.77,0,0,0-.791,3.114,5.592,5.592,0,0,0,2.325,4.734l.038.028-.038-.058a6.865,6.865,0,0,1-1.012-2.641" transform="translate(-326.008 -144.599)"/>
    <path id="Path_16252" data-name="Path 16252" d="M347.88,395.417a4.831,4.831,0,0,1,2.64.71,3.118,3.118,0,0,1,1.336,1.8c.014.049.028.1.041.155h.246c0-.474-.016-.871-.034-1.2-.028-.385-.039-.932-.039-1.646-.073-.024-.141-.047-.213-.069a12.85,12.85,0,0,0-3.94-.612q-4.5,0-5.532,3.912a10.386,10.386,0,0,0-.3,2.663,8.9,8.9,0,0,0,.3,2.459c.017.065.038.127.056.187a4.685,4.685,0,0,0,1.078,1.888,5.094,5.094,0,0,0,3.809,1.471,9.544,9.544,0,0,0,3.338-.747v-5.817c-.28-.016-.621-.041-1.035-.065-.531-.037-.953-.058-1.255-.073v.208c.857.167,1.3.811,1.3,1.917v1.553a3.194,3.194,0,0,1-.221,1.4,3.017,3.017,0,0,1-2.281.727q-4.033,0-4.03-5.455,0-5.362,4.74-5.365" transform="translate(-339.19 -136.29)"/>
    <path id="Path_16253" data-name="Path 16253" d="M359.461,516.255v11.614h.3c.184,0,.959.047,2.338.135v-.2a1.787,1.787,0,0,1-1.263-.847,4.076,4.076,0,0,1-.408-2.039v-7.889h2.647a2.433,2.433,0,0,1,1.971.6,2.475,2.475,0,0,1,.481,1.5h.28a8.062,8.062,0,0,0,.059-.979c0-.509.014-.932.037-1.269.026-.367.033-.622.033-.757a19.815,19.815,0,0,1-2.271.131Zm0,0" transform="translate(-354.253 -241.98)"/>
    <path id="Path_16254" data-name="Path 16254" d="M305.409,516.215c-.613-.017-1.127-.045-1.534-.095a18.113,18.113,0,0,1-.146,2.136,4.133,4.133,0,0,0-.041.567c0,.105,0,.208.01.3h.269a3.49,3.49,0,0,1,.782-1.667,2.3,2.3,0,0,1,1.6-.438h2.978v7.526a5.47,5.47,0,0,1-.351,2.311,1.871,1.871,0,0,1-1.331.938v.2c1-.088,1.753-.135,2.262-.135h.348V516.251H306.4Zm0,0" transform="translate(-305.882 -241.977)"/>
    <path id="Path_16255" data-name="Path 16255" d="M534.9,522.327h-3.526l1.829-3.355,1.154,2.277Zm-2.024-6.076c-.2,0-.633-.024-1.3-.064-.635-.045-1.143-.067-1.51-.067h-.4v.2a3.842,3.842,0,0,1,1.813.509,3.216,3.216,0,0,1,1.215,1.307l-3.871,7.118a5.7,5.7,0,0,1-2.338,2.545v.2c.113,0,.333-.021.671-.056.488-.049.9-.079,1.236-.079.362,0,.777.03,1.235.07a6.2,6.2,0,0,0,.689.065v-.2a1.247,1.247,0,0,1-.98-1.186,2.012,2.012,0,0,1,.242-.951c.109-.2.173-.309.183-.32a1.282,1.282,0,0,1,.052-.141l1.111-2.052h4.4l1.034,2.052a4.229,4.229,0,0,1,.59,1.7c0,.5-.3.807-.887.9v.2c1.054-.076,1.956-.121,2.715-.135l-4.415-8.7Zm0,0" transform="translate(-499.147 -241.977)"/>
    <path id="Path_16256" data-name="Path 16256" d="M586.661,525.262l-2.741-5.371a1.325,1.325,0,0,0-.1-.227c-.042-.121-.216-.489-.522-1.114-.282-.583-.5-1.06-.654-1.444h-1.147l.543,1.067,5.349,10.547c.5,0,1.275.047,2.331.135v-.2q-1.617-.6-3.054-3.389" transform="translate(-546.825 -242.831)"/>
    <path id="Path_16257" data-name="Path 16257" d="M426.137,516.12v.2a1.8,1.8,0,0,1,1.082.725,3.719,3.719,0,0,1,.456,2.193v4.62a14.244,14.244,0,0,1-.124,2.419,2.239,2.239,0,0,1-.454.963,1.684,1.684,0,0,1-.96.558v.2c.879-.088,1.456-.135,1.731-.135h.767V516.251h-.383c-.932-.064-1.646-.1-2.114-.131" transform="translate(-412.067 -241.977)"/>
    <path id="Path_16258" data-name="Path 16258" d="M457.338,526.766a5.864,5.864,0,0,1-2.19.31h-1.77a7.467,7.467,0,0,1-1.052-.069,16.322,16.322,0,0,1-.163-2.432v-2.4h2.928a2.9,2.9,0,0,1,1.644.36,1.763,1.763,0,0,1,.617,1.333h.263c-.026-.433-.049-.72-.059-.864-.045-.5-.073-.906-.073-1.216,0-.483.037-1.058.095-1.722h-.256a1.735,1.735,0,0,1-.749,1.1,4.941,4.941,0,0,1-1.885.232h-2.525v-1.8l.02-.753a1.081,1.081,0,0,1,1.062-1.833H455.1a5.172,5.172,0,0,1,2.018.26,2.377,2.377,0,0,1,.953,1.225h.2v-.277c0-.03-.01-.223-.034-.584-.033-.532-.057-.873-.057-1.021,0-.114.006-.279.023-.5-1.772.086-2.982.131-3.623.131H451.2v11.614h4.669c.7,0,1.488.047,2.378.135a12.487,12.487,0,0,1,.461-1.488,11.346,11.346,0,0,0,.379-1.174h-.23a3.723,3.723,0,0,1-1.515,1.423" transform="translate(-433.817 -241.98)"/>
    <path id="Path_16259" data-name="Path 16259" d="M320.253,313.178a8.541,8.541,0,0,1-2.158-.649q-.727-.276-1.51-.651c-.439-.22-.9-.463-1.362-.73-.747-.429-1.142-.734-1.169-.911a.856.856,0,0,0-.354-.491.566.566,0,0,0-.368-.183.657.657,0,0,0-.51.241,1.913,1.913,0,0,0-.3.541,5.477,5.477,0,0,1-2.316,1.55c-.453.211-.981.437-1.572.676a12.91,12.91,0,0,1-1.425.447c-.265.066-.416.165-.461.306-.037.168.054.361.276.573a1.964,1.964,0,0,0,.564.409,1.745,1.745,0,0,0,1.037-.293c.6-.352,1.131-.661,1.58-.93A21.693,21.693,0,0,0,312.2,311.8a1.5,1.5,0,0,1,1.437-.359,6.819,6.819,0,0,1,1.214.688,16.157,16.157,0,0,1,1.637,1.139l.1.073c.655.5,1.094.813,1.309.939a1.54,1.54,0,0,0,1.292-.043,2.684,2.684,0,0,0,1.382-.767c.064-.164-.039-.262-.315-.292" transform="translate(-308.552 -62.361)"/>
    <path id="Path_16260" data-name="Path 16260" d="M371.647,353.814q-.288-.093-.534-.168a9.757,9.757,0,0,0-1.272-.3c-.1-.007-.165.023-.181.1,0,.147.365.595,1.106,1.345a4.069,4.069,0,0,0,.347.323.906.906,0,0,0,.243.151.677.677,0,0,0,.672-.065.761.761,0,0,0,.357-.729,1.019,1.019,0,0,0-.738-.659" transform="translate(-363.088 -100.39)"/>
    <path id="Path_16261" data-name="Path 16261" d="M362.046,297.906a1.571,1.571,0,0,1,.651-.043,4.179,4.179,0,0,1-.072.534.694.694,0,0,0,.2.685.34.34,0,0,0,.5-.012,2.433,2.433,0,0,0,.44-1.02c.1.025.19.051.275.079a2.283,2.283,0,0,1,.342.145,1.226,1.226,0,0,0,1.206.062,2.088,2.088,0,0,0,.919-.848c.151-.294.09-.444-.174-.466-.747-.067-1.474-.106-2.165-.119.143-.2.108-.418-.118-.638l-.009-.009a.824.824,0,0,0-.821-.207.552.552,0,0,0-.442.67v.168c-.16,0-.28-.008-.359-.013a.707.707,0,0,0-.744.205.549.549,0,0,0-.117.645c.064.2.233.257.49.182" transform="translate(-356.016 -50.58)"/>
    <path id="Path_16262" data-name="Path 16262" d="M336.276,331.278c.386-.241.606-.454.653-.633a.065.065,0,0,0,0-.021.169.169,0,0,0,0-.09c-.043-.116-.269-.179-.674-.179-.663,0-1.311,0-1.942,0a1.619,1.619,0,0,0-.237-.966.476.476,0,0,0-.485-.172c-.16.041-.292.188-.418.449a1.613,1.613,0,0,0-.106.684,8.132,8.132,0,0,0-2.25.16,1.364,1.364,0,0,0-.264.148,1.131,1.131,0,0,0-.24.27.627.627,0,0,0,.014.688.422.422,0,0,0,.227.145,1.944,1.944,0,0,0,1.071-.141,4.415,4.415,0,0,1,1.473-.286,11.329,11.329,0,0,0,.15,3.509.449.449,0,0,0,.5.181c.175-.054.309-.253.387-.6,0-.087.048-1.126.132-3.12.3,0,.639.021,1.005.058a1.568,1.568,0,0,0,1-.081" transform="translate(-328.89 -79.433)"/>
    <path id="Path_16263" data-name="Path 16263" d="M327.166,352.715a6.529,6.529,0,0,1-.995.468c-.141.052-.288.11-.445.158-.481.172-.658.437-.52.779a.76.76,0,0,0,.563.535.677.677,0,0,0,.4-.033,2.478,2.478,0,0,0,.709-.4,3.172,3.172,0,0,0,.837-1.245c.093-.233.068-.39-.056-.475-.1-.064-.261,0-.5.209" transform="translate(-324.495 -99.644)"/>
    <path id="Path_16264" data-name="Path 16264" d="M315.926,297.764a9.448,9.448,0,0,1,1.09-.237c.061-.006.118-.013.178-.026a1.3,1.3,0,0,0,.258.77c.158.177.313.2.476.071.159-.108.237-.459.251-1.049.247-.05.51-.108.77-.163.341-.067.5-.19.5-.377-.041-.26-.3-.394-.788-.4-.126-.006-.254-.006-.384,0a.42.42,0,0,1,.076-.211.458.458,0,0,0-.162-.57,1.02,1.02,0,0,0-1.121-.1c-.017.012-.035.021-.049.029a.487.487,0,0,0-.106.572c.029.085.049.172.074.264a2.832,2.832,0,0,0-2.117.754c-.285.2-.341.413-.181.629.206.206.619.219,1.239.046" transform="translate(-315.339 -50.005)"/>
    <path id="Path_16265" data-name="Path 16265" d="M261.545,331.4a6.805,6.805,0,0,1-4.868-.856.852.852,0,0,1-.4-.438.7.7,0,0,0-.132-.361,7.153,7.153,0,0,0,1.269-.2c.8-.222,1.23-.447,1.289-.667a.343.343,0,0,1,.027-.13,1.937,1.937,0,0,0-.307-1.049.549.549,0,0,0-.89-.088,8.968,8.968,0,0,1-1.435.951q-.345.182-.745.388c0-.016-.011-.023-.029-.023a1.054,1.054,0,0,0-.864,0c-.236.123-.287.379-.158.755a7.375,7.375,0,0,0,1.8,2.116c.254.23.52.471.812.726a3.337,3.337,0,0,0,3.051.678,3.9,3.9,0,0,0,2.069-1.234.771.771,0,0,0,.13-.3v-.071c-.023-.161-.228-.23-.616-.193" transform="translate(-262.994 -77.88)"/>
    <path id="Path_16266" data-name="Path 16266" d="M240.252,294.587a1.019,1.019,0,0,1,.8-.858,3.681,3.681,0,0,1,1.357-.041,1.867,1.867,0,0,0,.434.016,1.9,1.9,0,0,0,.81-.263,1.521,1.521,0,0,0,.476-1.319,20.858,20.858,0,0,1,.513-2.516,1.672,1.672,0,0,0-.173-1.387,1.092,1.092,0,0,0-.816-.485,1.734,1.734,0,0,0-.81.141.452.452,0,0,1-.044.023c-.26.183-.32.672-.175,1.468a9.43,9.43,0,0,1,.17,1.913,1.183,1.183,0,0,1-1.207.958,14.477,14.477,0,0,0-1.8.128,1.476,1.476,0,0,0-.279.058c-.431.145-.58.5-.458,1.049a9.222,9.222,0,0,1-.007,2.415c-.2,1.734-.123,2.73.228,3a1.369,1.369,0,0,0,.237.092.91.91,0,0,0,.762-.11,1.309,1.309,0,0,0,.477-1.091,14.876,14.876,0,0,0-.3-2.017q-.163-.9-.2-1.175" transform="translate(-249.726 -43.283)"/>
    <path id="Path_16267" data-name="Path 16267" d="M208.384,260.474c-.371.016-.8.039-1.285.064l-.1.006a1.278,1.278,0,0,1-.512-.043.846.846,0,0,1-.155-.38c.179-.023.431-.048.764-.066s.775-.038,1.282-.052h0c.686-.008,1.219,0,1.6.014.191.011.347.019.46.034a1.345,1.345,0,0,1-.137.315.729.729,0,0,1-.323.075c-.061,0-.127,0-.2,0-.287-.01-.75,0-1.4.028m-2.155-1.377a3.6,3.6,0,0,1-.02-.485c.039,0,.08-.012.124-.018.19-.022.447-.04.766-.058.342-.019.755-.031,1.243-.044h.043c.691,0,1.222,0,1.6.008a5.105,5.105,0,0,1,.575.042,4.486,4.486,0,0,1-.025.5l-.55.018-1.6.061h0c-.5,0-.927,0-1.282,0-.319,0-.57-.011-.766-.023-.036,0-.069,0-.1,0m.1-1.87c0-.006,0-.006,0-.009a2.116,2.116,0,0,1,.766-.138c.258-.027.591-.042.981-.056.107-.006.206-.006.3-.006q1.12,0,1.6.046a1.032,1.032,0,0,1,.336.069.71.71,0,0,1,.152.421c-.122,0-.287.009-.488.016l-1.6.04h-.043c-.481.006-.9.008-1.243.008-.307,0-.562,0-.766-.012-.039,0-.08-.005-.124-.005.016-.205.054-.335.119-.375m3.58,4.523a.385.385,0,0,0,.079.009,1.958,1.958,0,0,0,1.456-.277c.328-.224.475-.707.449-1.446a17.677,17.677,0,0,1,.19-2.6,1.3,1.3,0,0,0-.225-.987c.108.043.247,0,.427-.147a4.9,4.9,0,0,0,.514-1.109c.184.023.354.05.519.085a4.839,4.839,0,0,1,1.169.379,1.813,1.813,0,0,0,1.685.091,2.938,2.938,0,0,0,1.272-1.213c.225-.39.139-.605-.238-.632-1.348-.1-2.64-.15-3.869-.154a.554.554,0,0,0-.019-.465,1,1,0,0,0-.244-.318,1.071,1.071,0,0,0-1.134-.23.782.782,0,0,0-.583.921v.125a5.134,5.134,0,0,1-.936-.026,1.607,1.607,0,0,0-.434-.022.932.932,0,0,0-.611.313.839.839,0,0,0-.155.9c.1.267.327.358.682.27a.514.514,0,0,0,.084-.02,3.11,3.11,0,0,1,1.348-.135,1.479,1.479,0,0,0,.1,1.089,4.135,4.135,0,0,0-1.452-.217c-.441-.017-.974-.017-1.6-.009-.4.007-.824.017-1.285.039-.251.008-.493.02-.766.031l-.316.016a1.246,1.246,0,0,0-.826.226c-.281.224-.376.728-.289,1.514.008.96.045,1.942.1,2.937a1.246,1.246,0,0,0,.5,1.2,1.464,1.464,0,0,0,.828.087,4.672,4.672,0,0,0,.573-.087c.059-.015.127-.028.194-.043a6.711,6.711,0,0,1,1.285-.095h.078c.8-.011,1.277-.011,1.445,0" transform="translate(-220.19 -12.881)"/>
    <path id="Path_16268" data-name="Path 16268" d="M184.618,292c-.076-.012-.158-.025-.236-.035-.132-.016-.311-.029-.531-.037-.387-.015-.91-.019-1.561-.011-.548.164-.935.145-1.15-.069a1.144,1.144,0,0,1-.188-.41,8.4,8.4,0,0,1,0-2.7c.015-.108.025-.215.038-.323a1.287,1.287,0,0,0-.038-.956,1.057,1.057,0,0,0-.93-.456c-.509-.016-.825.054-.962.209-.19.261-.171.748.063,1.449a2.978,2.978,0,0,1,.173,1.322c-.469,1.65-.454,2.684.035,3.1a1.283,1.283,0,0,0,.913.11c.257-.019.493-.032.708-.042a7.882,7.882,0,0,1,1.79,0,1.3,1.3,0,0,1,.718.881,15.276,15.276,0,0,1-.1,2.879,2.221,2.221,0,0,0,.063,1.072.6.6,0,0,0,.424.369l.014.008a.68.68,0,0,0,.7-.06.638.638,0,0,1,.056-.081,5.051,5.051,0,0,0,.46-2.166,15.386,15.386,0,0,1,.165-2.641,1.578,1.578,0,0,0,.068-1.071c-.05-.155-.283-.27-.694-.344" transform="translate(-197.681 -42.641)"/>
    <path id="Path_16269" data-name="Path 16269" d="M160.814,334.519c-.237-.01-.444-.018-.624-.018-.1,0-.2.008-.31.008a10.578,10.578,0,0,1-2.069-.231c-.278-.056-.655.121-1.133.525-.414.391-.557.719-.423.986a.609.609,0,0,0,.533.189c.146-.013.376-.046.686-.1a8.671,8.671,0,0,1,2.207-.286.434.434,0,0,1,.2.133.254.254,0,0,1,.038.1.562.562,0,0,1-.038.28.5.5,0,0,1-.073.141,5.225,5.225,0,0,1-4.494,1.329c-.355-.043-.575.054-.666.292a1.266,1.266,0,0,0,.113.82,1.61,1.61,0,0,0,.554.693,1.973,1.973,0,0,0,1.13.19,6.507,6.507,0,0,0,3.438-1.529,12.087,12.087,0,0,0,1.485-1.414c.055-.094.13-.189.2-.292.314-.5.411-.881.294-1.13a1.638,1.638,0,0,0-1.045-.678" transform="translate(-176.596 -83.832)"/>
    <g id="Group_8565" data-name="Group 8565" transform="translate(-49 238.024)">
      <g id="Group_8564" data-name="Group 8564" transform="translate(0 0)" clip-path="url(#clip-path)">
        <path id="Path_16270" data-name="Path 16270" d="M170.039,254.063a14.785,14.785,0,0,1,1.741-.291c.246-.027.5-.05.76-.074a1.535,1.535,0,0,0,.236.455.427.427,0,0,0,.625.1.909.909,0,0,0,.334-.721c.3-.052.61-.1.932-.146.247-.038.507-.075.764-.113l.054-.006c.456-.1.671-.258.647-.5-.051-.3-.288-.467-.7-.51a2.51,2.51,0,0,0-.341-.006c-.14-.008-.283-.01-.423-.01-.261,0-.529,0-.792,0a1.212,1.212,0,0,1,.152-.43.61.61,0,0,0-.216-.742,1.412,1.412,0,0,0-1.508-.15.609.609,0,0,0-.2.8,1.411,1.411,0,0,1,.1.476c-.138-.021-.283-.036-.427-.059-.17-.029-.341-.055-.519-.086a4.144,4.144,0,0,0-2.548,1.043c-.374.264-.446.544-.222.847.264.25.776.286,1.548.109" transform="translate(-139.509 -249.299)"/>
        <path id="Path_16271" data-name="Path 16271" d="M336.6,239.46a3.67,3.67,0,0,0-2.9,1.41,3.671,3.671,0,0,1,2.9-2.325v.379a2.494,2.494,0,0,0-.966.283,4.46,4.46,0,0,1,.966-.072Zm-3.3,3.865c1.669-1.639,2.02-1.9,3.026-1.976.1-.008.184-.013.272-.023v.253a4.132,4.132,0,0,0-1.81.856,12.67,12.67,0,0,1-1.947,1.487c1.262-.314,1.924-1.56,3.757-1.986v.451a4.2,4.2,0,0,0-1.731.753c-1.387,1.039-2.461,1.449-4.035.962.872-.15,1.667.01,2.468-.778m6.419-.995c-.386.238-.379.736,0,.838Zm0,1.548a1.679,1.679,0,0,1-1.286-.824,1.671,1.671,0,0,0-1.836-.668v-.451a6.34,6.34,0,0,1,1.942-.12,2.41,2.41,0,0,0,1.179-.175v.325a.863.863,0,0,0-.639.985.71.71,0,0,0,.639.584Zm-3.121-5.334v.379a3.144,3.144,0,0,1,1.507.3c.311.118.853-.418.511-.689-.323-.268-.675.282-.2.314-.1.188-.342.236-.555.013-.23-.243.03-.85.657-.637a.638.638,0,0,1-.046,1.255,1.428,1.428,0,0,1-.059,1.982s.295.017.656.028a1.514,1.514,0,0,0,.651-.133v-.791c-.2.032-.375.234-.2.54-.733-.088-.5-.851,0-.927a1.807,1.807,0,0,1,.2-.007v-.565a1.215,1.215,0,0,0-.379.063,1.134,1.134,0,1,0-1.986-1.057,2.371,2.371,0,0,0-.757-.069m0,2.781a2.243,2.243,0,0,0,1.422-.455c.1-.854-.543-1.363-1.422-1.411v-.325c1.72.067,2.439,1.277,1.672,2.164-.169.2-.587.189-1.088.208a4.829,4.829,0,0,0-.584.072Zm3.121.032c.266-.123.445-.329.354-.591a.31.31,0,0,0-.354-.2Zm.756.86a1.11,1.11,0,0,0-.756.112v.838l.011,0c.583.138.579-.527.258-.52a.412.412,0,0,1,.486-.14Zm0,1.477a1.215,1.215,0,0,1-.756.183v-.342a.907.907,0,0,0,.756-.234Zm-.756-4.087a1,1,0,0,1,.756.273v2.107a1.4,1.4,0,0,1-.173-.052.979.979,0,0,0-.583.03v-.325a1.137,1.137,0,0,0,.567-.567c.258-.567-.132-.879-.567-.9Zm.756.273a.943.943,0,0,1,.138,1,1.127,1.127,0,0,1,1.321-.034.755.755,0,0,1,.3.533v.194a1.243,1.243,0,0,1-1.185,1.057,1.374,1.374,0,0,1-.576,1.063V243.3a.55.55,0,0,0,.069-.086c.232-.314.133-.611-.069-.7v-.295c.025.008.046.008.069.013,1.138.229,1.4-.587,1.31-.932a.674.674,0,0,0-1.191-.025c-.177.322.078.554.411.42-.314-.526.7-.607.567-.036-.066.282-.612.453-1.167.33Zm0,0" transform="translate(-280.41 -238.105)"/>
      </g>
    </g>
    <path id="Path_16272" data-name="Path 16272" d="M398.2,351.081l-.673-.013-.076,0v.07l-.037,1.75-.007.072h.079l.181,0h.071v-.064l.023-.726.44.013v-.314l-.425-.01.014-.491.412.008Zm-.118-.586a.693.693,0,0,1,.118-.007v.21c-.037,0-.069,0-.107,0a1.417,1.417,0,0,0-.954.454,1.3,1.3,0,0,0-.341.966,1.284,1.284,0,0,0,.486.908,1.422,1.422,0,0,0,.916.325v.208a1.654,1.654,0,0,1-1.061-.375,1.488,1.488,0,0,1-.562-1.049,1.461,1.461,0,0,1,.393-1.117,1.62,1.62,0,0,1,1.113-.528m.118,1.685h.076l.416.765.02.035.045.006h.2l.122,0-.054-.107-.407-.749a.577.577,0,0,0,.333-.218.392.392,0,0,0,.041-.089.841.841,0,0,0,.033-.093c0-.027.005-.058.005-.091a.477.477,0,0,0-.193-.411.821.821,0,0,0-.28-.124l-.078-.013-.075-.006-.064-.006h-.011l-.13,0v.292l.141,0c.03,0,.064.006.091.007a.385.385,0,0,1,.087.019.212.212,0,0,1,.067.027.263.263,0,0,1,.055.027.524.524,0,0,1,.056.074l.007.023,0,.028a.194.194,0,0,1,0,.052c0,.018,0,.035,0,.048s0,.033-.019.047a.26.26,0,0,1-.026.037.211.211,0,0,1-.039.035.544.544,0,0,1-.116.054H398.5a.688.688,0,0,1-.174.014H398.2Zm0-1.692a1.663,1.663,0,0,1,1.062.374,1.5,1.5,0,0,1,.562,1.052,1.465,1.465,0,0,1-.393,1.118,1.658,1.658,0,0,1-1.109.528v0c-.047,0-.086,0-.123,0v-.208c.03,0,.067,0,.1,0h0a1.415,1.415,0,0,0,.956-.458,1.275,1.275,0,0,0,.342-.962v0a1.336,1.336,0,0,0-.485-.906,1.421,1.421,0,0,0-.919-.324Zm0,0" transform="translate(-386.427 -97.915)"/>
  </g>
</svg>
