<svg xmlns="http://www.w3.org/2000/svg" width="127.749" height="120" viewBox="0 0 127.749 120">
  <g id="Group_8709" data-name="Group 8709" transform="translate(-345.523 -273.923)">
    <path id="Path_16703" data-name="Path 16703" d="M349.48,277.947a4.332,4.332,0,0,0-3.957,4.318v99.248a4.33,4.33,0,0,0,3.578,4.271l45.3,8.069a4.337,4.337,0,0,0,5.1-4.267V278.26a4.333,4.333,0,0,0-4.719-4.32Zm38.143,61.907c-1.865,0-3.377-2.659-3.377-5.932s1.513-5.93,3.377-5.93,3.38,2.651,3.38,5.93S389.49,339.854,387.623,339.854Z" fill="#547c8e"/>
    <path id="Path_16704" data-name="Path 16704" d="M680.373,450.386,644.968,424.1v13.638H617.46v25.138h27.508v13.634Z" transform="translate(-207.101 -118.787)" fill="#ee9849"/>
    <path id="Path_16705" data-name="Path 16705" d="M530.795,538.552c0,3.273,1.513,5.932,3.377,5.932s3.38-2.659,3.38-5.932-1.513-5.93-3.38-5.93S530.795,535.273,530.795,538.552Z" transform="translate(-143.808 -204.63)" fill="#fff"/>
    <path id="Path_16706" data-name="Path 16706" d="M641.885,329.641V295.71a3.381,3.381,0,0,0-3.373-3.382H617.46v6.758h17.671v30.554Z" transform="translate(-210.331 -14.559)" fill="#547c8e"/>
    <path id="Path_16707" data-name="Path 16707" d="M617.46,662.709v6.758h21.052a3.382,3.382,0,0,0,3.373-3.381V627.137h-6.755v35.572Z" transform="translate(-210.331 -279.391)" fill="#547c8e"/>
  </g>
</svg>
