<svg xmlns="http://www.w3.org/2000/svg" width="136" height="120" viewBox="0 0 136 120">
  <g id="Group_8604" data-name="Group 8604" transform="translate(-4219.348 4356.936)">
    <g id="Group_8600" data-name="Group 8600" transform="translate(4226.923 -4239.361)">
      <path id="Path_16409" data-name="Path 16409" d="M4237.074-4236.961l.006.156c.033,2.262.033,2.261-2.206,2.26q-3.256,0-6.515,0c-1.058,0-1.325-.264-1.339-1.292s0-.5,0-1.132c.927,0,1.321,0,4,0C4233.039-4236.971,4235.056-4236.964,4237.074-4236.961Z" transform="translate(-4227.014 4236.969)" fill="#757982"/>
      <path id="Path_16410" data-name="Path 16410" d="M4336.281-4236.961l.006.156c.034,2.262.034,2.261-2.205,2.26q-3.258,0-6.516,0c-1.058,0-1.325-.264-1.339-1.292s0-.5,0-1.132c.927,0,1.321,0,4,0C4332.246-4236.971,4334.263-4236.964,4336.281-4236.961Z" transform="translate(-4215.446 4236.969)" fill="#757982"/>
    </g>
    <path id="Path_16411" data-name="Path 16411" d="M4350.729-4272.221c2.675,0,4.6,1.7,4.608,4.124q.021,13.321,0,26.644a4.125,4.125,0,0,1-3.9,4.058.671.671,0,0,1-.157.042c-4.84.092-126.181.1-128.04-.044a4.166,4.166,0,0,1-3.882-4.164c-.012-5.525,0-11.052-.006-16.578,0-3.233,0-6.464,0-9.7.006-2.712,1.855-4.384,4.835-4.385C4239.949-4272.222,4347.355-4272.224,4350.729-4272.221Z" transform="translate(0 -1.976)" fill="#2d3037"/>
    <path id="Path_16412" data-name="Path 16412" d="M4287.382-4269.087q30.244,0,60.489-.035c1.966-.005,3.993,1.582,3.979,3.593-.055,7.209-.021,14.418-.023,21.627a3.758,3.758,0,0,1-3.877,3.555c-.137,0-.274,0-.412,0q-60.118,0-120.238,0a4.743,4.743,0,0,1-3.318-1.192,3,3,0,0,1-1.024-2.338q-.039-11-.008-22c0-1.663,1.83-3.216,3.694-3.216Z" transform="translate(-0.043 -2.013)" fill="#161719"/>
    <path id="Path_16413" data-name="Path 16413" d="M4287.383-4242.4q-30.054,0-60.111.022c-1.8,0-2.343-.724-2.364-2.149-.037-2.64-.01-5.282-.01-7.923,0-4.123.028-8.246-.017-12.369-.015-1.422.827-2.352,2.57-2.35q59.989.055,119.977.026c1.006,0,1.925.109,2.372,1.1a2.162,2.162,0,0,1,.122.945q.006,10.4,0,20.81c0,1.315-.638,1.89-2.1,1.89Z" transform="translate(-0.065 -2.036)" fill="#2d3037"/>
    <path id="Path_16414" data-name="Path 16414" d="M4330.213-4254.949a3.534,3.534,0,0,1-3.581,3.627,3.633,3.633,0,0,1-3.661-3.671,3.729,3.729,0,0,1,3.625-3.582A3.613,3.613,0,0,1,4330.213-4254.949Z" transform="translate(11.515 -2.137)" fill="#7b879a"/>
    <path id="Path_16415" data-name="Path 16415" d="M4327.284-4254.9c0,.492.011.985,0,1.478a.6.6,0,0,1-.59.632.571.571,0,0,1-.681-.529,16.424,16.424,0,0,1,.01-3.167.607.607,0,0,1,.725-.578.627.627,0,0,1,.542.687Q4327.285-4255.635,4327.284-4254.9Z" transform="translate(11.48 -2.155)" fill="#2c2f36"/>
    <rect id="Rectangle_6276" data-name="Rectangle 6276" width="64.639" height="4.123" rx="0.352" transform="translate(4274.125 -4278.009)" fill="#464a53"/>
    <rect id="Rectangle_6277" data-name="Rectangle 6277" width="26.145" height="26.687" rx="2.901" transform="translate(4221.159 -4304.579)" fill="#41464c"/>
    <path id="Rectangle_6278" data-name="Rectangle 6278" d="M0,0H26.145a0,0,0,0,1,0,0V12.267a2.9,2.9,0,0,1-2.9,2.9H2.9a2.9,2.9,0,0,1-2.9-2.9V0A0,0,0,0,1,0,0Z" transform="translate(4221.159 -4293.106)" fill="#2c2f36"/>
    <rect id="Rectangle_6279" data-name="Rectangle 6279" width="26.145" height="1.093" transform="translate(4221.159 -4282.502)" fill="#161719"/>
    <circle id="Ellipse_1" data-name="Ellipse 1" cx="0.726" cy="0.726" r="0.726" transform="translate(4224.815 -4285.458)" fill="#fb0006"/>
    <rect id="Rectangle_6280" data-name="Rectangle 6280" width="18.716" height="4.801" rx="1.221" transform="translate(4224.874 -4295.626)" fill="#202328"/>
    <g id="Group_8601" data-name="Group 8601" transform="translate(4226.963 -4314.331)">
      <path id="Path_16416" data-name="Path 16416" d="M4227.054-4312.518c0-.79.709-1.114,1.4-.683a1.732,1.732,0,0,0,1.865.031,1.968,1.968,0,0,1,1.847.077,1.434,1.434,0,0,0,1.473.024,1.955,1.955,0,0,1,2.093.042,1.455,1.455,0,0,0,1.482-.076,1.955,1.955,0,0,1,1.771,0,1.637,1.637,0,0,0,1.744-.055c.615-.408,1.154-.187,1.155.571,0,2.738,0,21.12,0,21.12s-13.027.042-14.827.022C4227.054-4292,4227.052-4309.83,4227.054-4312.518Z" transform="translate(-4227.053 4313.393)" fill="#dfdfdf"/>
      <path id="Path_16417" data-name="Path 16417" d="M4232.526-4308.822c-.885,0-1.771,0-2.656,0-.219,0-.477.023-.46-.316.014-.282.238-.269.435-.269q2.729,0,5.46,0c.2,0,.419,0,.425.279,0,.338-.256.305-.473.306C4234.346-4308.819,4233.436-4308.822,4232.526-4308.822Z" transform="translate(-4227.081 4313.346)" fill="#b4b4b4"/>
      <path id="Path_16418" data-name="Path 16418" d="M4238.327-4309.41c.318,0,.636,0,.954,0,.206,0,.4.024.4.305-.006.229-.161.279-.349.279h-2.057c-.184,0-.349-.038-.361-.267-.016-.279.175-.316.386-.317C4237.641-4309.411,4237.984-4309.409,4238.327-4309.41Z" transform="translate(-4227.169 4313.346)" fill="#b4b4b4"/>
      <path id="Path_16419" data-name="Path 16419" d="M4238.327-4307.6c.318,0,.636,0,.954,0,.206,0,.4.023.4.306-.006.229-.161.278-.349.278q-1.028,0-2.057,0c-.184,0-.349-.037-.361-.267-.016-.279.175-.315.386-.316C4237.641-4307.6,4237.984-4307.6,4238.327-4307.6Z" transform="translate(-4227.169 4313.325)" fill="#b4b4b4"/>
      <path id="Path_16420" data-name="Path 16420" d="M4232.526-4307.016c-.885,0-1.771,0-2.656,0-.219,0-.477.023-.46-.316.014-.283.238-.269.435-.269q2.729,0,5.46,0c.2,0,.419,0,.425.278,0,.338-.256.306-.473.307C4234.346-4307.013,4233.436-4307.016,4232.526-4307.016Z" transform="translate(-4227.081 4313.325)" fill="#b4b4b4"/>
      <path id="Path_16421" data-name="Path 16421" d="M4232.526-4305.21c-.885,0-1.771,0-2.656,0-.219,0-.477.023-.46-.316.014-.282.238-.269.435-.269q2.729,0,5.46,0c.2,0,.419,0,.425.278,0,.338-.256.306-.473.306C4234.346-4305.207,4233.436-4305.21,4232.526-4305.21Z" transform="translate(-4227.081 4313.303)" fill="#b4b4b4"/>
      <path id="Path_16422" data-name="Path 16422" d="M4238.327-4305.8c.318,0,.636,0,.954,0,.206,0,.4.023.4.305-.006.23-.161.279-.349.279h-2.057c-.184,0-.349-.038-.361-.267-.016-.279.175-.315.386-.316C4237.641-4305.8,4237.984-4305.8,4238.327-4305.8Z" transform="translate(-4227.169 4313.303)" fill="#b4b4b4"/>
      <path id="Path_16423" data-name="Path 16423" d="M4232.526-4303.4c-.885,0-1.771,0-2.656,0-.219,0-.477.023-.46-.316.014-.283.238-.269.435-.269q2.729,0,5.46,0c.2,0,.419,0,.425.278,0,.338-.256.306-.473.307C4234.346-4303.4,4233.436-4303.4,4232.526-4303.4Z" transform="translate(-4227.081 4313.283)" fill="#b4b4b4"/>
      <path id="Path_16424" data-name="Path 16424" d="M4238.327-4303.992c.318,0,.636,0,.954,0,.206,0,.4.024.4.305-.006.23-.161.279-.349.279h-2.057c-.184,0-.349-.038-.361-.267-.016-.279.175-.315.386-.316C4237.641-4303.993,4237.984-4303.991,4238.327-4303.992Z" transform="translate(-4227.169 4313.282)" fill="#b4b4b4"/>
      <path id="Path_16425" data-name="Path 16425" d="M4232.526-4301.6c-.885,0-1.771,0-2.656,0-.219,0-.477.023-.46-.316.014-.283.238-.269.435-.269q2.729,0,5.46,0c.2,0,.419,0,.425.28,0,.337-.256.3-.473.305C4234.346-4301.595,4233.436-4301.6,4232.526-4301.6Z" transform="translate(-4227.081 4313.261)" fill="#b4b4b4"/>
      <path id="Path_16426" data-name="Path 16426" d="M4238.327-4302.186c.318,0,.636,0,.954,0,.206,0,.4.023.4.305-.006.23-.161.279-.349.279q-1.028,0-2.057,0c-.184,0-.349-.037-.361-.266-.016-.279.175-.316.386-.317C4237.641-4302.187,4237.984-4302.185,4238.327-4302.186Z" transform="translate(-4227.169 4313.261)" fill="#b4b4b4"/>
      <path id="Path_16427" data-name="Path 16427" d="M4232.526-4299.792c-.885,0-1.771,0-2.656,0-.219,0-.477.023-.46-.316.014-.282.238-.269.435-.269q2.729,0,5.46,0c.2,0,.419,0,.425.279,0,.338-.256.3-.473.305C4234.346-4299.79,4233.436-4299.792,4232.526-4299.792Z" transform="translate(-4227.081 4313.24)" fill="#b4b4b4"/>
      <path id="Path_16428" data-name="Path 16428" d="M4238.327-4300.38c.318,0,.636,0,.954,0,.206,0,.4.024.4.306-.006.23-.161.279-.349.279q-1.028,0-2.057,0c-.184,0-.349-.038-.361-.267-.016-.279.175-.315.386-.316C4237.641-4300.381,4237.984-4300.379,4238.327-4300.38Z" transform="translate(-4227.169 4313.239)" fill="#b4b4b4"/>
      <path id="Path_16429" data-name="Path 16429" d="M4232.526-4297.985c-.885,0-1.771,0-2.656,0-.219,0-.477.023-.46-.315.014-.283.238-.269.435-.269q2.729,0,5.46,0c.2,0,.419,0,.425.279,0,.337-.256.3-.473.305C4234.346-4297.983,4233.436-4297.986,4232.526-4297.985Z" transform="translate(-4227.081 4313.218)" fill="#b4b4b4"/>
      <path id="Path_16430" data-name="Path 16430" d="M4238.327-4298.574c.318,0,.636,0,.954,0,.206,0,.4.024.4.305-.006.231-.161.279-.349.279q-1.028,0-2.057,0c-.184,0-.349-.038-.361-.267-.016-.279.175-.315.386-.316C4237.641-4298.575,4237.984-4298.573,4238.327-4298.574Z" transform="translate(-4227.169 4313.218)" fill="#b4b4b4"/>
      <path id="Path_16431" data-name="Path 16431" d="M4232.526-4296.179c-.885,0-1.771,0-2.656,0-.219,0-.477.023-.46-.316.014-.282.238-.269.435-.269q2.729,0,5.46,0c.2,0,.419,0,.425.28,0,.337-.256.305-.473.306C4234.346-4296.177,4233.436-4296.18,4232.526-4296.179Z" transform="translate(-4227.081 4313.197)" fill="#b4b4b4"/>
      <path id="Path_16432" data-name="Path 16432" d="M4238.327-4296.768c.318,0,.636,0,.954,0,.206,0,.4.024.4.306-.006.23-.161.279-.349.279q-1.028,0-2.057,0c-.184,0-.349-.038-.361-.267-.016-.279.175-.315.386-.317C4237.641-4296.769,4237.984-4296.767,4238.327-4296.768Z" transform="translate(-4227.169 4313.197)" fill="#b4b4b4"/>
      <path id="Path_16433" data-name="Path 16433" d="M4232.526-4294.374c-.885,0-1.771,0-2.656,0-.219,0-.477.022-.46-.316.014-.283.238-.269.435-.269q2.729,0,5.46,0c.2,0,.419,0,.425.28,0,.337-.256.3-.473.305C4234.346-4294.371,4233.436-4294.375,4232.526-4294.374Z" transform="translate(-4227.081 4313.176)" fill="#b4b4b4"/>
      <path id="Path_16434" data-name="Path 16434" d="M4238.327-4294.962c.318,0,.636,0,.954,0,.206,0,.4.023.4.305-.006.23-.161.279-.349.279q-1.028,0-2.057,0c-.184,0-.349-.038-.361-.267-.016-.278.175-.315.386-.316C4237.641-4294.963,4237.984-4294.961,4238.327-4294.962Z" transform="translate(-4227.169 4313.176)" fill="#b4b4b4"/>
    </g>
    <rect id="Rectangle_6281" data-name="Rectangle 6281" width="83.111" height="58.708" rx="2.1" transform="translate(4264.681 -4356.936)" fill="#292e34"/>
    <rect id="Rectangle_6282" data-name="Rectangle 6282" width="73.979" height="52.982" transform="translate(4269.403 -4354.072)" fill="#fff"/>
    <g id="Group_8602" data-name="Group 8602" transform="translate(4276.014 -4349.796)">
      <rect id="Rectangle_6283" data-name="Rectangle 6283" width="11.279" height="11.279" rx="1.542" fill="#a7e2f4"/>
      <rect id="Rectangle_6284" data-name="Rectangle 6284" width="11.279" height="11.279" rx="1.542" transform="translate(16.328)" fill="#a7e2f4"/>
      <rect id="Rectangle_6285" data-name="Rectangle 6285" width="11.279" height="11.279" rx="1.542" transform="translate(32.656)" fill="#a7e2f4"/>
      <rect id="Rectangle_6286" data-name="Rectangle 6286" width="11.279" height="11.279" rx="1.542" transform="translate(48.983)" fill="#a7e2f4"/>
      <rect id="Rectangle_6287" data-name="Rectangle 6287" width="11.279" height="11.279" rx="1.542" transform="translate(0 13.562)" fill="#a7e2f4"/>
      <rect id="Rectangle_6288" data-name="Rectangle 6288" width="11.279" height="11.279" rx="1.542" transform="translate(16.328 13.562)" fill="#a7e2f4"/>
      <rect id="Rectangle_6289" data-name="Rectangle 6289" width="11.279" height="11.279" rx="1.542" transform="translate(32.656 13.562)" fill="#a7e2f4"/>
      <rect id="Rectangle_6290" data-name="Rectangle 6290" width="11.279" height="11.279" rx="1.542" transform="translate(48.983 13.562)" fill="#a7e2f4"/>
    </g>
    <g id="Group_8603" data-name="Group 8603" transform="translate(4276.014 -4322.419)">
      <rect id="Rectangle_6291" data-name="Rectangle 6291" width="60.494" height="10.215" rx="1.566" fill="#efefef"/>
      <rect id="Rectangle_6292" data-name="Rectangle 6292" width="1.799" height="0.871" transform="translate(4.624 2.341)" fill="#dbdbdb"/>
      <rect id="Rectangle_6293" data-name="Rectangle 6293" width="1.799" height="0.871" transform="translate(4.624 4.672)" fill="#dbdbdb"/>
      <rect id="Rectangle_6294" data-name="Rectangle 6294" width="1.799" height="0.871" transform="translate(4.624 7.003)" fill="#dbdbdb"/>
      <rect id="Rectangle_6295" data-name="Rectangle 6295" width="3.173" height="0.871" transform="translate(41.256 2.341)" fill="#dbdbdb"/>
      <rect id="Rectangle_6296" data-name="Rectangle 6296" width="3.173" height="0.871" transform="translate(41.256 4.672)" fill="#dbdbdb"/>
      <rect id="Rectangle_6297" data-name="Rectangle 6297" width="3.173" height="0.871" transform="translate(41.256 7.003)" fill="#dbdbdb"/>
      <rect id="Rectangle_6298" data-name="Rectangle 6298" width="7.671" height="0.871" transform="translate(48.122 2.341)" fill="#dbdbdb"/>
      <rect id="Rectangle_6299" data-name="Rectangle 6299" width="7.671" height="0.871" transform="translate(48.122 4.672)" fill="#dbdbdb"/>
      <rect id="Rectangle_6300" data-name="Rectangle 6300" width="7.671" height="0.871" transform="translate(48.122 7.003)" fill="#dbdbdb"/>
      <rect id="Rectangle_6301" data-name="Rectangle 6301" width="26.65" height="0.871" transform="translate(10.038 2.341)" fill="#dbdbdb"/>
      <rect id="Rectangle_6302" data-name="Rectangle 6302" width="26.65" height="0.871" transform="translate(10.038 4.672)" fill="#dbdbdb"/>
      <rect id="Rectangle_6303" data-name="Rectangle 6303" width="26.65" height="0.871" transform="translate(10.038 7.003)" fill="#dbdbdb"/>
    </g>
    <rect id="Rectangle_6304" data-name="Rectangle 6304" width="44.378" height="6.036" rx="1.755" transform="translate(4284.514 -4310.285)" fill="#14cd72"/>
    <rect id="Rectangle_6305" data-name="Rectangle 6305" width="45.617" height="10.109" rx="1.987" transform="translate(4283.57 -4301.076)" fill="#464a53"/>
    <rect id="Rectangle_6306" data-name="Rectangle 6306" width="48.551" height="4.295" rx="0.989" transform="translate(4281.681 -4302.26)" fill="#565c68"/>
    <path id="Path_16435" data-name="Path 16435" d="M4311.748-4289.678H4282.92l-2.225,13.128h33.276Z" transform="translate(8.541 -1.395)" fill="#3a3e47"/>
  </g>
</svg>
