<svg xmlns="http://www.w3.org/2000/svg" width="192" height="119.965" viewBox="0 0 192 119.965">
  <g id="Group_9163" data-name="Group 9163" transform="translate(-243.348 -253.342)">
    <path id="Path_16839" data-name="Path 16839" d="M264.1,601.847s-22.341-23.987-3.778-49.958c16.47-23.042,35.673-21.467,49.762-12.116,6,3.983,23.3.491,38.026-22.956,20.081-31.975,89.688-12.582,77,36.612-6.142,23.806,18.692,24.672,6.038,48.468Z" transform="translate(-8.858 -228.782)" fill="#fcecdb"/>
    <path id="Path_16840" data-name="Path 16840" d="M515.429,1705.4c-.439-.689-1.759-2.478-3.518-2.241-1.916.258,2.116,1.521,3.351,2.247a2.046,2.046,0,0,1-.683-.08,4.6,4.6,0,0,0-2.691.468h7.858a1.244,1.244,0,0,0-.562-.719,1.4,1.4,0,0,0-.723-.064c.467-.551.792-2.31-.509-1.858-.95.331-.948,1.406-.854,2.042-.2.032-.407.064-.61.093-.391-1.994-1.775-7.838-4.58-7.994-2.843-.158,2.411,6.061,4.161,8.049C515.844,1705.372,515.628,1705.392,515.429,1705.4Z" transform="translate(-247.159 -1332.997)" fill="#82b378"/>
    <g id="Group_9144" data-name="Group 9144" transform="translate(308.973 253.342)">
      <g id="Group_9141" data-name="Group 9141" transform="translate(14.541 0)">
        <path id="Path_16841" data-name="Path 16841" d="M1305.3,253.611a.814.814,0,0,1,.69.92l-15.881,111.934-.034.238-3.448-.488,15.929-112.188a.8.8,0,0,1,.9-.679l.925.129Z" transform="translate(-1286.628 -253.342)" fill="#2a4e96"/>
      </g>
      <g id="Group_9142" data-name="Group 9142" transform="translate(16.299 0.136)">
        <path id="Path_16842" data-name="Path 16842" d="M1327.117,256.162,1311.235,368.1l-1.724-.25,16-112.738.927.134A.808.808,0,0,1,1327.117,256.162Z" transform="translate(-1309.511 -255.115)" fill="#3b6cbc"/>
      </g>
      <path id="Path_16843" data-name="Path 16843" d="M1167.259,879.714l-3.691,71.644h-45.03l-4.952-71.644Z" transform="translate(-1112.342 -831.583)" fill="#f99746" opacity="0.2"/>
      <path id="Path_16844" data-name="Path 16844" d="M1301.322,879.714l-3.713,71.834H1252.64l-4.99-71.834Z" transform="translate(-1246.405 -831.583)" fill="#f99746" opacity="0.2"/>
      <path id="Path_16845" data-name="Path 16845" d="M1171.113,541.439h-52.972a26.49,26.49,0,0,1,23.069-26.267c.012.028.025.057.037.085a3.707,3.707,0,0,0,6.8-.085A26.491,26.491,0,0,1,1171.113,541.439Z" transform="translate(-1116.547 -495.053)" fill="#f99746" opacity="0.2"/>
      <path id="Path_16846" data-name="Path 16846" d="M1287.832,541.439h-43.257c0-11.216,5.393-21,13.391-26.182a3.707,3.707,0,0,0,6.8-.085A26.491,26.491,0,0,1,1287.832,541.439Z" transform="translate(-1233.265 -495.053)" fill="#f99746" opacity="0.2"/>
      <rect id="Rectangle_6809" data-name="Rectangle 6809" width="56.161" height="2.36" rx="1.18" transform="translate(0 46.387)" fill="#f99746"/>
      <path id="Path_16847" data-name="Path 16847" d="M1216.908,1160.29l-2.848,45.025h-39.5l-3.233-40.09a.316.316,0,0,1,.068.011c1.089.227,14.974,2.938,22.722-2.53,9.484-6.7,21.327-2.916,22.666-2.462.011.011.011.011.023.011Z" transform="translate(-1165.646 -1089.196)" fill="#f9ddbf"/>
      <g id="Group_9143" data-name="Group 9143" transform="translate(9.313 91.078)">
        <path id="Path_16848" data-name="Path 16848" d="M1230.923,1668.081a2.292,2.292,0,1,1,2.292,2.293A2.293,2.293,0,0,1,1230.923,1668.081Z" transform="translate(-1229.975 -1648.334)" fill="#707070"/>
        <circle id="Ellipse_1827" data-name="Ellipse 1827" cx="2.686" cy="2.686" r="2.686" transform="matrix(0.999, -0.038, 0.038, 0.999, 5.82, 10.348)" fill="#707070"/>
        <circle id="Ellipse_1828" data-name="Ellipse 1828" cx="1.86" cy="1.86" r="1.86" transform="translate(13.624 5.698)" fill="#707070"/>
        <path id="Path_16849" data-name="Path 16849" d="M1218.587,1504.722a2.686,2.686,0,1,1,2.686,2.686A2.686,2.686,0,0,1,1218.587,1504.722Z" transform="translate(-1218.587 -1497.164)" fill="#707070"/>
        <circle id="Ellipse_1829" data-name="Ellipse 1829" cx="1.62" cy="1.62" r="1.62" transform="translate(6.987)" fill="#707070"/>
        <circle id="Ellipse_1830" data-name="Ellipse 1830" cx="1.62" cy="1.62" r="1.62" transform="translate(34.217)" fill="#707070"/>
        <path id="Path_16850" data-name="Path 16850" d="M1482.786,1523.912a2.686,2.686,0,1,1,2.686,2.686A2.686,2.686,0,0,1,1482.786,1523.912Z" transform="translate(-1462.485 -1514.88)" fill="#707070"/>
        <path id="Path_16851" data-name="Path 16851" d="M1650.027,1539.674a2.686,2.686,0,1,1,2.686,2.686A2.686,2.686,0,0,1,1650.027,1539.674Z" transform="translate(-1616.875 -1529.431)" fill="#707070"/>
        <circle id="Ellipse_1831" data-name="Ellipse 1831" cx="2.686" cy="2.686" r="2.686" transform="translate(7.972 20.591) rotate(-45)" fill="#707070"/>
        <path id="Path_16852" data-name="Path 16852" d="M1416.993,1600.669a2.686,2.686,0,1,1,2.686,2.686A2.686,2.686,0,0,1,1416.993,1600.669Z" transform="translate(-1401.748 -1585.739)" fill="#707070"/>
        <path id="Path_16853" data-name="Path 16853" d="M1486.9,1674.344a2.686,2.686,0,1,1,2.686,2.686A2.686,2.686,0,0,1,1486.9,1674.344Z" transform="translate(-1466.281 -1653.753)" fill="#707070"/>
        <path id="Path_16854" data-name="Path 16854" d="M1561.95,1593.817a2.686,2.686,0,1,1,2.686,2.686A2.686,2.686,0,0,1,1561.95,1593.817Z" transform="translate(-1535.566 -1579.413)" fill="#707070"/>
        <circle id="Ellipse_1832" data-name="Ellipse 1832" cx="1.899" cy="1.899" r="1.899" transform="translate(26.384 4.079) rotate(-45)" fill="#707070"/>
        <path id="Path_16855" data-name="Path 16855" d="M1628.763,1674.344a2.686,2.686,0,1,1,2.686,2.686A2.686,2.686,0,0,1,1628.763,1674.344Z" transform="translate(-1597.245 -1653.753)" fill="#707070"/>
      </g>
      <path id="Path_16856" data-name="Path 16856" d="M1217.6,1160.245c-1.3-.159-12.374.059-16.273,2.151-3.707,1.988-14.878,10.691-29.115,2.84,1.089.227,14.974,2.938,22.722-2.53C1204.419,1156,1216.262,1159.791,1217.6,1160.245Z" transform="translate(-1166.464 -1089.196)" fill="#f2ccaa"/>
    </g>
    <g id="girl_2" data-name="girl 2" transform="translate(280.329 325.708)">
      <path id="Path_16857" data-name="Path 16857" d="M995.008,1196.671c.065-.188.836-2.194,3.993-1.35,0,0-1.592-.285-2.063.31a2.63,2.63,0,0,1,2.07.012c.77.528.816,2.172.672,2.665s-1.1,1.93-1.681,1.9a1.73,1.73,0,0,1-.655-.2,7.7,7.7,0,0,1,.192.877c.467,2.938-1.579,5.047-2.55,4.45-.623-.383-1.166.713-1.166.713l-5.8-7.61S988.922,1195.114,995.008,1196.671Z" transform="translate(-967.775 -1195.114)" fill="#233862"/>
      <path id="Path_16858" data-name="Path 16858" d="M806.5,1382.809s-3.622,3.121-3.941,3.011a32.507,32.507,0,0,1-8.8-5.234l-.785,1.486s7.014,8,9.355,7.972c4.621-.053,8.817-4.171,9.7-4.729S809.057,1383.373,806.5,1382.809Z" transform="translate(-787.717 -1366.334)" fill="#ed985f"/>
      <path id="Path_16859" data-name="Path 16859" d="M754.949,1365.627s-.621-1.208-1.239-1.244-.506.755-2.051.622c-.371-.032-.947-.17-.638.469s1.284,1.468,1.9,1.326a2.363,2.363,0,0,1,1.4.313Z" transform="translate(-748.911 -1351.375)" fill="#ed985f"/>
      <path id="Path_16860" data-name="Path 16860" d="M984.939,1330.539a8.628,8.628,0,0,0,3.016,1.284c4.649,1.074,6.431-2.855,7.1-5.553a4,4,0,0,0-1.575-.484c-.336-.04-.689-.066-.982-.08-.522-.4-1.3-2.037-1.472-4.577l-.219.059-3.664,1s.168,1.165.25,2.266a4.357,4.357,0,0,1-.09,1.886c-.286.062-.458.1-.458.1l0,0A23.608,23.608,0,0,0,984.939,1330.539Z" transform="translate(-964.936 -1311.445)" fill="#ffb27d"/>
      <path id="Path_16861" data-name="Path 16861" d="M1013.623,1322.9s.168,1.164.25,2.266c2.076-.208,3.039-2.184,3.414-3.268Z" transform="translate(-991.416 -1312.16)" fill="#ed985f"/>
      <path id="Path_16862" data-name="Path 16862" d="M980.9,1247.539s4.927-.272,4.711-3.338.273-5.166-2.882-5.122-3.683,1.257-3.86,2.3S979.614,1247.53,980.9,1247.539Z" transform="translate(-959.314 -1235.7)" fill="#ffb27d"/>
      <path id="Path_16863" data-name="Path 16863" d="M970.6,1232.072c.695-.977,1.284-.815,1.626-.561a3.449,3.449,0,0,1,4.474.39,5.871,5.871,0,0,0,2.164,3.323s-.857.618-2.963.235a3.524,3.524,0,0,1-1.758-1.036,11.516,11.516,0,0,0,2.149,2.272c-2.552-.965-3.791-4.329-3.915-4.685a3.868,3.868,0,0,0-.971,1.507c-.189.8-1.006,2.046-1.478,2.025A5.1,5.1,0,0,1,970.6,1232.072Z" transform="translate(-951.018 -1228.11)" fill="#233862"/>
      <path id="Path_16864" data-name="Path 16864" d="M964.849,1389.35c.445-2.275,1.9-11.363.445-14.287-.521-1.051-2.566-1.145-4.809-1.053-.7.451-3.358,2.154-4.451,1.941l-.061-.014c-.515-.129-.709-.49-.28-.8a9.8,9.8,0,0,0-2.491.153c-.779.147-2.505,2.158-2.505,2.158s.8,1.843,2.243,1.649c-.265,2.374.129,3.422,2.592,8.905a10.425,10.425,0,0,1-.281,8.809s12.252,9.851,12.32,4.835C967.624,1397.867,964.28,1392.257,964.849,1389.35Z" transform="translate(-933.326 -1360.238)" fill="#b5453c"/>
      <path id="Path_16865" data-name="Path 16865" d="M864.365,1486.669a2.279,2.279,0,0,1-1.639-1l-.189-.285c-1.395-2.111-1.937-8.577-5.074-15.465-.764-1.677-3.507-1.979-4.255-3.874,0,0-1.841-6.144,3.523-6.326s14.366,17.1,14.508,18.908C871.376,1480.385,874.785,1487.845,864.365,1486.669Z" transform="translate(-843.045 -1439.388)" fill="#233862"/>
      <path id="Path_16866" data-name="Path 16866" d="M724.615,1761.008h7.635a3.174,3.174,0,0,0-.216-2.046,1.472,1.472,0,0,1,.055-1.757,2.965,2.965,0,0,1-1.286.242,2.687,2.687,0,0,1-1.135-.4,27.456,27.456,0,0,1-2.175,2.285C726.993,1759.691,724.769,1759.563,724.615,1761.008Z" transform="translate(-724.615 -1713.868)" fill="#9e332e"/>
      <path id="Path_16867" data-name="Path 16867" d="M985.695,1419.043s.994,9.04-5.451,10.935-8.274-8.318-3.071-9.053A50.087,50.087,0,0,0,985.695,1419.043Z" transform="translate(-954.976 -1401.836)" fill="#9e332e"/>
      <path id="Path_16868" data-name="Path 16868" d="M787.268,1458.583c-.46,3.447-2.255,14.325-5.422,19.632-1.021,1.711,2.572,2.67,2.592,2.665a6.11,6.11,0,0,0,1.655-1.228c2.571-2.317,7.79-8.878,7.79-14.138,0-2.565.045-7.463-1.82-8.708C790.915,1456.038,787.451,1457.214,787.268,1458.583Z" transform="translate(-777.28 -1436.473)" fill="#233862"/>
      <path id="Path_16869" data-name="Path 16869" d="M923.7,1481.821s-.283-.394-.776-1.142a27.038,27.038,0,0,1-2.025-4.883c-.828-2.355-1.81-5.252-3.038-8.267-.379-.931-.781-1.872-1.209-2.813-.764-1.677-2.866-1.445-3.614-3.341,0,0-2.918-6.572,2.446-6.753s15.557,17.58,16.142,19.3C932.263,1475.806,935.391,1483.625,923.7,1481.821Z" transform="translate(-897.824 -1434.681)" fill="#2b478b"/>
      <path id="Path_16870" data-name="Path 16870" d="M797.55,1761.008h7.635a3.173,3.173,0,0,0-.216-2.046,1.472,1.472,0,0,1,.055-1.757,2.966,2.966,0,0,1-1.286.242,2.687,2.687,0,0,1-1.135-.4,27.446,27.446,0,0,1-2.175,2.285C799.928,1759.691,797.7,1759.563,797.55,1761.008Z" transform="translate(-791.946 -1713.868)" fill="#b5453c"/>
      <path id="Path_16871" data-name="Path 16871" d="M988.357,1568.888c-.828-2.355-1.81-5.252-3.038-8.267.321-2.284,1.012-4.282,2.175-5.088C987.494,1555.533,990.315,1564.273,988.357,1568.888Z" transform="translate(-965.286 -1527.838)" fill="#273f76"/>
      <path id="Path_16872" data-name="Path 16872" d="M859.056,1459.98c-.46,3.447-1.107,14.569-4.274,19.876-1.021,1.711,2.572,2.67,2.592,2.665a6.111,6.111,0,0,0,1.655-1.228c2.571-2.317,7.79-8.878,7.79-14.138,0-2.565-3.01-7.258-4.875-8.5A1.876,1.876,0,0,0,859.056,1459.98Z" transform="translate(-844.612 -1438.114)" fill="#2b478b"/>
      <path id="Path_16873" data-name="Path 16873" d="M839.679,1388.043s-10.836,3.991-12.464,3.909c-1.052-.053-9.8-3.128-9.8-3.128l-.785,1.486s8.514,5.472,10.854,5.445c4.621-.053,12.418-2.89,13.3-3.448S842.237,1388.607,839.679,1388.043Z" transform="translate(-809.56 -1373.218)" fill="#ffb27d"/>
      <path id="Path_16874" data-name="Path 16874" d="M993.551,1324.9a4.553,4.553,0,0,1,1.777-.078s-.07.511-1.036.562A.771.771,0,0,1,993.551,1324.9Z" transform="translate(-972.886 -1314.826)" fill="#fff"/>
      <path id="Path_16875" data-name="Path 16875" d="M1043.939,1386.988a5.953,5.953,0,0,0,4.3,3.766s5.5-1.693,2.76-5.438C1051,1385.316,1048.29,1383.306,1043.939,1386.988Z" transform="translate(-1019.402 -1370.195)" fill="#b5453c"/>
      <g id="Group_9147" data-name="Group 9147" transform="translate(1.842 6.217)">
        <g id="Group_9145" data-name="Group 9145" transform="translate(1.448 0)">
          <rect id="Rectangle_6810" data-name="Rectangle 6810" width="11.36" height="0.346" transform="translate(0 11.247) rotate(-81.92)" fill="#2a4e96"/>
        </g>
        <path id="Path_16876" data-name="Path 16876" d="M755.548,1338.512l-.367,7.132H750.7l-.493-7.132Z" transform="translate(-750.081 -1333.71)" fill="#f99746" opacity="0.2"/>
        <path id="Path_16877" data-name="Path 16877" d="M767.868,1338.512l-.367,7.132h-3.457l-.493-7.132Z" transform="translate(-762.401 -1333.71)" fill="#f99746" opacity="0.2"/>
        <path id="Path_16878" data-name="Path 16878" d="M755.931,1304.836h-5.273a2.637,2.637,0,0,1,2.3-2.615l0,.008a.369.369,0,0,0,.677-.008A2.637,2.637,0,0,1,755.931,1304.836Z" transform="translate(-750.499 -1300.207)" fill="#f99746" opacity="0.2"/>
        <path id="Path_16879" data-name="Path 16879" d="M767.551,1304.836h-4.306a3.088,3.088,0,0,1,1.333-2.606.369.369,0,0,0,.677-.008A2.637,2.637,0,0,1,767.551,1304.836Z" transform="translate(-762.119 -1300.207)" fill="#f99746" opacity="0.2"/>
        <path id="Rectangle_6811" data-name="Rectangle 6811" d="M.117,0H5.473a.117.117,0,0,1,.117.117v0a.117.117,0,0,1-.117.117H.117A.117.117,0,0,1,0,.117v0A.117.117,0,0,1,.117,0Z" transform="translate(0 4.628)" fill="#f99746"/>
        <path id="Path_16880" data-name="Path 16880" d="M755.954,1366.935l.322,3.992h3.932l.283-4.482a2.683,2.683,0,0,0-2.268.24A3.465,3.465,0,0,1,755.954,1366.935Z" transform="translate(-755.388 -1359.356)" fill="#f99746"/>
        <g id="Group_9146" data-name="Group 9146" transform="translate(0.927 9.709)">
          <circle id="Ellipse_1833" data-name="Ellipse 1833" cx="0.267" cy="0.267" r="0.267" transform="translate(0.094 1.028)" fill="#d36c1e"/>
          <circle id="Ellipse_1834" data-name="Ellipse 1834" cx="0.267" cy="0.267" r="0.267" transform="translate(0.692 0.388)" fill="#d36c1e"/>
          <circle id="Ellipse_1835" data-name="Ellipse 1835" cx="0.267" cy="0.267" r="0.267" fill="#d36c1e"/>
          <circle id="Ellipse_1836" data-name="Ellipse 1836" cx="0.267" cy="0.267" r="0.267" transform="translate(2.021)" fill="#d36c1e"/>
          <path id="Path_16881" data-name="Path 16881" d="M803.608,1404.211a.267.267,0,1,1,.267.267A.267.267,0,0,1,803.608,1404.211Z" transform="translate(-800.308 -1403.823)" fill="#d36c1e"/>
          <path id="Path_16882" data-name="Path 16882" d="M772.427,1417.618a.267.267,0,1,1,.267.267A.267.267,0,0,1,772.427,1417.618Z" transform="translate(-771.523 -1416.2)" fill="#d36c1e"/>
          <circle id="Ellipse_1837" data-name="Ellipse 1837" cx="0.267" cy="0.267" r="0.267" transform="translate(1.518 0.587)" fill="#d36c1e"/>
          <path id="Path_16883" data-name="Path 16883" d="M787.368,1417.618a.267.267,0,1,1,.267.267A.267.267,0,0,1,787.368,1417.618Z" transform="translate(-785.316 -1416.2)" fill="#d36c1e"/>
          <circle id="Ellipse_1838" data-name="Ellipse 1838" cx="0.267" cy="0.267" r="0.267" transform="translate(2.627 0.535)" fill="#d36c1e"/>
          <circle id="Ellipse_1839" data-name="Ellipse 1839" cx="0.267" cy="0.267" r="0.267" transform="translate(3.138 1.151)" fill="#d36c1e"/>
        </g>
      </g>
      <path id="Path_16884" data-name="Path 16884" d="M765.811,1383.25s-.785-1.208-1.567-1.244-.64.755-2.595.622c-.469-.032-1.2-.17-.808.469a3.046,3.046,0,0,0,2.407,1.326,3.622,3.622,0,0,1,1.777.313Z" transform="translate(-757.956 -1367.644)" fill="#ffb27d"/>
      <path id="Path_16885" data-name="Path 16885" d="M786.836,1373.9s-1.243-.57-1.6-.677-.284,0-.178.339.746.658.746.764S786.836,1373.9,786.836,1373.9Z" transform="translate(-780.334 -1359.498)" fill="#ffb27d"/>
    </g>
    <g id="Group_9150" data-name="Group 9150" transform="translate(349.123 296.203)">
      <g id="Group_9148" data-name="Group 9148" transform="translate(1.852 7.951)">
        <path id="Path_16886" data-name="Path 16886" d="M1648.1,917.109l-.7-.841a2.348,2.348,0,0,0-2.767-1.613s-.9.224-.537.788.307.295.8,1.1a2.177,2.177,0,0,0,2.005,1.189l.763.178Z" transform="translate(-1644.009 -914.608)" fill="#ffb27d"/>
        <path id="Path_16887" data-name="Path 16887" d="M1678.021,936.873c.465-.633.594-.66.594-.66s6.87,3.169,7.494,3.509c1.642.895,11.015.444,11.015.444l1.3,5.3s-11.675-.842-13.873-2.032c-2.616-1.416-6.931-5.53-6.931-5.53A2.19,2.19,0,0,1,1678.021,936.873Z" transform="translate(-1675.036 -934.553)" fill="#c3592d"/>
      </g>
      <path id="Path_16888" data-name="Path 16888" d="M1934.356,919.206s-2.06,2.444-4.683,1.422a7.947,7.947,0,0,1-.572-2.371c0-.124,0-.244,0-.358-.014-1.133-.052-1.769-.052-1.769h0c.119-.05,4.01-1.647,4.007-1.515A6.9,6.9,0,0,0,1934.356,919.206Z" transform="translate(-1905.29 -906.656)" fill="#ffb27d"/>
      <path id="Path_16889" data-name="Path 16889" d="M1932.663,923.874a6.086,6.086,0,0,1-3.567,2.553c-.014-1.133-.052-1.769-.052-1.769h0A25.017,25.017,0,0,1,1932.663,923.874Z" transform="translate(-1905.29 -915.185)" fill="#ed975d"/>
      <path id="Path_16890" data-name="Path 16890" d="M1910.262,846.253s4.376,1.029,4.974-1.706,1.567-4.444-1.2-5.216-3.542.152-3.964,1.016S1909.139,845.915,1910.262,846.253Z" transform="translate(-1887.323 -836.897)" fill="#ffb27d"/>
      <path id="Path_16891" data-name="Path 16891" d="M1897.5,819.532c.06.038,1,.328,2.784-3.224a3.093,3.093,0,0,0-.182-2.83c-.652-1.066-2.966-1.9-4.888-2.268s-2.384.717-2.836,1.8a5.87,5.87,0,0,1-1.847,2.08c1.657.926,3.654-.4,4.345-.181s.936,1.308.988,1.657.132.64,1,.328.393,1.232.254,1.528C1897.118,818.425,1897,819.212,1897.5,819.532Z" transform="translate(-1869.734 -811.137)" fill="#a9453d"/>
      <g id="Group_9149" data-name="Group 9149" transform="translate(20.591 33.594)">
        <path id="Path_16892" data-name="Path 16892" d="M2126.912,1729.318h2.649c.555,0,1.173-.556,1.327-1.574s1.3-1.574,1.544-2.408-1.019-2.007-1.019-2.007l-.212-.272-.22-.283-2.1.494s-.052.5-.084,1.136a14.486,14.486,0,0,0-.009,1.457c.062,1.112-.311,2.308-1.3,2.525S2126.912,1729.318,2126.912,1729.318Z" transform="translate(-2108.468 -1686.318)" fill="#2c3a64"/>
        <path id="Path_16893" data-name="Path 16893" d="M1887.878,1762h7.023a.628.628,0,0,0,.149-.043c.469-.235.322-2.03.266-2.585-.011-.1-.018-.163-.018-.163s-2.47-1.975-2.809-.463c-.011.047-.023.094-.036.139h0c-.429,1.415-2.345,2.058-3.452,2.237A1.206,1.206,0,0,0,1887.878,1762Z" transform="translate(-1887.878 -1719.003)" fill="#2c3a64"/>
        <path id="Path_16894" data-name="Path 16894" d="M1906.3,1273.08s.375,4.68.816,10.3c.6,7.641,1.32,17.027,1.391,18.8.123,3.088.618,8.026.618,8.026a3.882,3.882,0,0,0,3.519.679,80.788,80.788,0,0,0,2.688-14.51c.009-.122.019-.246.028-.369.556-7.594,1.42-23.584,1.42-23.584Z" transform="translate(-1904.885 -1270.58)" fill="#2b478b"/>
        <path id="Path_16895" data-name="Path 16895" d="M1906.3,1273.08s.375,4.68.816,10.3l8.216,13c.009-.122.019-.246.028-.369.556-7.594,1.42-23.584,1.42-23.584Z" transform="translate(-1904.885 -1270.58)" fill="#233862"/>
        <path id="Path_16896" data-name="Path 16896" d="M1928.59,1251.384s6.76,16.947,11.205,24.911,5.834,10.187,5.834,10.187,2.547-1.019,2.778-1.713c0,0-1.7-15.375-4.677-19.123-1.682-2.118-3.658-8.474-3.751-10.7s-.6-6.622-.6-6.622Z" transform="translate(-1925.462 -1248.328)" fill="#2b478b"/>
      </g>
      <path id="Path_16897" data-name="Path 16897" d="M1887.622,969.451c.026,1.449.11,3.078.224,4.733q.01.147.021.294c.073,1.025.151,2.052.242,3.054.036.4.075.8.115,1.189l.006.052c0,.146.021.3.037.449.369,3.753.756,6.717.828,6.763a.422.422,0,0,0,.288.073,42.877,42.877,0,0,0,6.324-.423,18.221,18.221,0,0,0,5.626-2.333c.246-.145.806-.53.76-.817-.045-.316-.128-.773-.233-1.346a72.859,72.859,0,0,1-1.209-9.448q-.063-1.123-.182-2.215a33.634,33.634,0,0,0-.98-5.289,10.369,10.369,0,0,0-4-6.075c-.2-.111-.835.348-1.816.978a2.828,2.828,0,0,1-2.688.281l-.9,1.448a9.119,9.119,0,0,0-2.329,4.855q-.032.241-.056.513A31.855,31.855,0,0,0,1887.622,969.451Z" transform="translate(-1867.043 -946.804)" fill="#f78248"/>
      <path id="Path_16898" data-name="Path 16898" d="M1887.622,1046.647c.026,1.449.11,3.078.224,4.733q.01.147.021.294a15.136,15.136,0,0,0,6.487-9.957,15.375,15.375,0,0,0-6.655,1.666A31.854,31.854,0,0,0,1887.622,1046.647Z" transform="translate(-1867.043 -1023.999)" fill="#c3592d"/>
      <path id="Path_16899" data-name="Path 16899" d="M1623.008,987.041a4.563,4.563,0,0,1-.158-.7c-.084-.338-.135-1.023-.262-1.009s-.24.241-.212.424a1.488,1.488,0,0,1-.071.522,4.186,4.186,0,0,1-.986-.856c-.745-1.056-1.169-1.245-1.367-.236a3.347,3.347,0,0,0,.316,2.042,2.3,2.3,0,0,0,2.122,1.259,3.345,3.345,0,0,1,.794.429l.908-1.259S1623.135,987.3,1623.008,987.041Z" transform="translate(-1619.904 -971.195)" fill="#ffb27d"/>
      <path id="Path_16900" data-name="Path 16900" d="M1656.663,999.276c.29-.784.74-.733.74-.733s8.358,2.083,9.108,2.172,9-3.221,9-3.221,3.247-1.457,4.768-.127a3.633,3.633,0,0,1,1.073,3.851,3.678,3.678,0,0,1-3.108,2.74c-3.366.429-10.081,1.236-11.489,1.04-3.133-.436-10.231-4.534-10.231-4.534A2.63,2.63,0,0,1,1656.663,999.276Z" transform="translate(-1653.695 -982.54)" fill="#f78248"/>
    </g>
    <path id="Path_16901" data-name="Path 16901" d="M2313.707,1712.25h-7.176c-.385-.326.266-1.067.946-1.117a4.2,4.2,0,0,1,1.1.13c.1-1.312.663-7.208,2.788-6.971,2.39.265,0,2.6-.676,3.977a32.817,32.817,0,0,0-1.27,3.18c.194.042.395.083.6.121.317-.973,1.5-4.244,2.994-4.053,1.76.223,1.052,1.535-.195,2.313-.915.573-2.039,1.386-2.573,1.779a7.617,7.617,0,0,0,1.4.112A3.027,3.027,0,0,1,2313.707,1712.25Z" transform="translate(-1904.542 -1339.452)" fill="#82b378"/>
    <g id="Group_9151" data-name="Group 9151" transform="translate(289.492 317.525)">
      <path id="Path_16902" data-name="Path 16902" d="M849.433,1091.411a2.785,2.785,0,1,1-2.781-2.781,1.925,1.925,0,0,1,.412.037h.007a2.763,2.763,0,0,1,2.325,2.325A2.024,2.024,0,0,1,849.433,1091.411Z" transform="translate(-843.863 -1088.629)" fill="#f99746"/>
      <path id="Path_16903" data-name="Path 16903" d="M869.022,1091.432a1.97,1.97,0,1,1-2.333-2.325h.007A2.763,2.763,0,0,1,869.022,1091.432Z" transform="translate(-863.488 -1089.07)" fill="#ffab6c"/>
    </g>
    <g id="Group_9152" data-name="Group 9152" transform="translate(292.769 306.204)">
      <path id="Path_16904" data-name="Path 16904" d="M893.161,944.609a3.321,3.321,0,1,1-3.317-3.317,2.284,2.284,0,0,1,.491.044h.009a3.3,3.3,0,0,1,2.773,2.773A2.407,2.407,0,0,1,893.161,944.609Z" transform="translate(-886.518 -941.292)" fill="#f99746"/>
      <path id="Path_16905" data-name="Path 16905" d="M916.521,944.637a2.349,2.349,0,1,1-2.782-2.773h.009A3.3,3.3,0,0,1,916.521,944.637Z" transform="translate(-909.922 -941.82)" fill="#ffab6c"/>
    </g>
    <g id="Group_9153" data-name="Group 9153" transform="translate(280.265 302.923)">
      <path id="Path_16906" data-name="Path 16906" d="M732.933,903.164a4.572,4.572,0,1,1-4.566-4.566,3.155,3.155,0,0,1,.676.06h.012a4.536,4.536,0,0,1,3.817,3.817A3.321,3.321,0,0,1,732.933,903.164Z" transform="translate(-723.789 -898.598)" fill="#f99746"/>
      <path id="Path_16907" data-name="Path 16907" d="M765.087,903.2a3.234,3.234,0,1,1-3.829-3.817h.012A4.536,4.536,0,0,1,765.087,903.2Z" transform="translate(-756.004 -899.324)" fill="#ffab6c"/>
    </g>
    <g id="Group_9154" data-name="Group 9154" transform="translate(276.766 315.949)" opacity="0.2">
      <path id="Path_16908" data-name="Path 16908" d="M685.375,1071.678a3.563,3.563,0,1,1-3.558-3.558,2.454,2.454,0,0,1,.527.047h.009a3.535,3.535,0,0,1,2.974,2.974A2.583,2.583,0,0,1,685.375,1071.678Z" transform="translate(-678.25 -1068.12)" fill="#f99746"/>
      <path id="Path_16909" data-name="Path 16909" d="M710.433,1071.706a2.52,2.52,0,1,1-2.984-2.974h.009A3.535,3.535,0,0,1,710.433,1071.706Z" transform="translate(-703.354 -1068.685)" fill="#ffcfab"/>
    </g>
    <g id="Group_9155" data-name="Group 9155" transform="translate(276.099 354.709)" opacity="0.2">
      <path id="Path_16910" data-name="Path 16910" d="M675.638,1575.567a3.036,3.036,0,1,1-3.032-3.032,2.094,2.094,0,0,1,.449.04h.008a3.012,3.012,0,0,1,2.535,2.535A2.2,2.2,0,0,1,675.638,1575.567Z" transform="translate(-669.566 -1572.535)" fill="#f99746"/>
      <path id="Path_16911" data-name="Path 16911" d="M696.993,1575.593a2.148,2.148,0,1,1-2.543-2.535h.008A3.012,3.012,0,0,1,696.993,1575.593Z" transform="translate(-690.961 -1573.018)" fill="#ffcfab"/>
    </g>
    <g id="Group_9156" data-name="Group 9156" transform="translate(268.651 351.988)" opacity="0.2">
      <path id="Path_16912" data-name="Path 16912" d="M576.344,1538.968a1.85,1.85,0,1,1-1.847-1.847,1.27,1.27,0,0,1,.274.024h0a1.835,1.835,0,0,1,1.544,1.544A1.341,1.341,0,0,1,576.344,1538.968Z" transform="translate(-572.645 -1537.121)" fill="#f99746"/>
      <path id="Path_16913" data-name="Path 16913" d="M589.353,1538.984a1.308,1.308,0,1,1-1.549-1.544h0A1.835,1.835,0,0,1,589.353,1538.984Z" transform="translate(-585.678 -1537.415)" fill="#ffcfab"/>
    </g>
    <g id="Group_9157" data-name="Group 9157" transform="translate(377.638 286.6)" opacity="0.2">
      <path id="Path_16914" data-name="Path 16914" d="M1995.585,688.458a2.292,2.292,0,1,1-2.289-2.289,1.579,1.579,0,0,1,.339.03h.006a2.274,2.274,0,0,1,1.914,1.913A1.668,1.668,0,0,1,1995.585,688.458Z" transform="translate(-1991.001 -686.169)" fill="#f99746"/>
      <path id="Path_16915" data-name="Path 16915" d="M2011.705,688.476a1.621,1.621,0,1,1-1.919-1.913h.006A2.274,2.274,0,0,1,2011.705,688.476Z" transform="translate(-2007.152 -686.533)" fill="#ffcfab"/>
    </g>
    <g id="Group_9158" data-name="Group 9158" transform="translate(366.035 284.956)">
      <path id="Path_16916" data-name="Path 16916" d="M1845.576,667.544a2.785,2.785,0,1,1-2.781-2.781,1.915,1.915,0,0,1,.412.037h.007a2.763,2.763,0,0,1,2.325,2.325A2.015,2.015,0,0,1,1845.576,667.544Z" transform="translate(-1840.006 -664.763)" fill="#f99746"/>
      <path id="Path_16917" data-name="Path 16917" d="M1865.165,667.568a1.97,1.97,0,1,1-2.333-2.325h.008A2.763,2.763,0,0,1,1865.165,667.568Z" transform="translate(-1859.631 -665.206)" fill="#ffab6c"/>
    </g>
    <g id="Group_9159" data-name="Group 9159" transform="translate(369.743 274.736)">
      <path id="Path_16918" data-name="Path 16918" d="M1894.893,535.083a3.321,3.321,0,1,1-3.317-3.317,2.29,2.29,0,0,1,.491.044h.009a3.3,3.3,0,0,1,2.773,2.773A2.408,2.408,0,0,1,1894.893,535.083Z" transform="translate(-1888.25 -531.766)" fill="#f99746"/>
      <path id="Path_16919" data-name="Path 16919" d="M1918.254,535.111a2.349,2.349,0,1,1-2.782-2.773h.009A3.3,3.3,0,0,1,1918.254,535.111Z" transform="translate(-1911.655 -532.294)" fill="#ffab6c"/>
    </g>
    <g id="Group_9160" data-name="Group 9160" transform="translate(358.968 268.274)">
      <path id="Path_16920" data-name="Path 16920" d="M1757.17,452.232a4.572,4.572,0,1,1-4.566-4.566,3.147,3.147,0,0,1,.676.06h.012a4.535,4.535,0,0,1,3.817,3.817A3.31,3.31,0,0,1,1757.17,452.232Z" transform="translate(-1748.026 -447.666)" fill="#f99746"/>
      <path id="Path_16921" data-name="Path 16921" d="M1789.325,452.27a3.234,3.234,0,1,1-3.829-3.817h.012A4.535,4.535,0,0,1,1789.325,452.27Z" transform="translate(-1780.242 -448.393)" fill="#ffab6c"/>
    </g>
    <path id="Rectangle_6812" data-name="Rectangle 6812" d="M.255,0H191.745A.255.255,0,0,1,192,.255v0a.255.255,0,0,1-.255.255H.255A.255.255,0,0,1,0,.255v0A.255.255,0,0,1,.255,0Z" transform="translate(243.348 372.797)" fill="#2e3552"/>
  </g>
</svg>
