<svg id="round-account-button-with-user-inside" xmlns="http://www.w3.org/2000/svg" width="24" height="24" viewBox="0 0 24 24">
  <g id="account-circle">
    <path id="Path_4866" data-name="Path 4866" d="M12,0A12,12,0,1,0,24,12,12.035,12.035,0,0,0,12,0Zm0,3.6a3.536,3.536,0,0,1,3.6,3.6A3.536,3.536,0,0,1,12,10.8,3.536,3.536,0,0,1,8.4,7.2,3.536,3.536,0,0,1,12,3.6Zm0,17.04A8.755,8.755,0,0,1,4.8,16.8c0-2.4,4.8-3.72,7.2-3.72s7.2,1.32,7.2,3.72A8.755,8.755,0,0,1,12,20.64Z" fill="#343434"/>
  </g>
</svg>
